<svg xmlns="http://www.w3.org/2000/svg" xmlns:xlink="http://www.w3.org/1999/xlink" width="290" zoomAndPan="magnify" viewBox="0 0 217.5 74.999997" height="100" preserveAspectRatio="xMidYMid meet" version="1.0"><path fill="#ff3333" d="M 100.242188 23.496094 L 106.464844 23.496094 L 106.464844 51.324219 L 100.242188 51.324219 Z M 100.242188 23.496094 " fill-opacity="1" fill-rule="nonzero"/><path fill="#ff3333" d="M 98.570312 23.539062 L 68.152344 23.539062 L 68.152344 29.171875 L 91.652344 29.171875 L 91.652344 38.722656 L 89.183594 38.722656 L 89.183594 31.875 C 89.183594 31.480469 89.046875 31.148438 88.777344 30.878906 C 88.507812 30.601562 88.175781 30.460938 87.785156 30.460938 L 77.550781 30.449219 C 77.148438 30.457031 76.804688 30.601562 76.53125 30.878906 C 76.257812 31.148438 76.125 31.480469 76.125 31.875 L 76.125 41.179688 C 76.125 41.542969 76.253906 41.851562 76.5 42.101562 C 76.75 42.355469 77.058594 42.480469 77.417969 42.480469 L 82.101562 42.480469 C 82.421875 42.480469 82.695312 42.382812 82.933594 42.1875 C 83.167969 41.988281 83.316406 41.726562 83.375 41.402344 L 83.476562 40.859375 C 83.6875 39.609375 83.757812 38.359375 83.683594 37.105469 L 83.582031 35.125 C 83.554688 34.914062 83.425781 34.789062 83.207031 34.746094 L 82.203125 34.644531 C 81.910156 34.691406 81.765625 34.832031 81.765625 35.066406 L 81.765625 37.695312 L 80.050781 37.695312 L 80.050781 34.476562 C 80.050781 34.128906 80.167969 33.835938 80.410156 33.589844 C 80.65625 33.34375 80.945312 33.21875 81.28125 33.21875 L 83.515625 33.21875 C 84.101562 33.21875 84.601562 33.429688 85.023438 33.851562 C 85.441406 34.269531 85.648438 34.769531 85.648438 35.355469 L 85.648438 41.722656 C 85.648438 42.308594 85.441406 42.8125 85.023438 43.234375 C 84.601562 43.652344 84.101562 43.859375 83.515625 43.859375 L 76.640625 43.859375 C 75.890625 43.859375 75.292969 43.746094 74.839844 43.519531 C 74.386719 43.300781 74.121094 42.824219 74.050781 42.09375 L 73.132812 31.320312 L 68.0625 31.613281 L 69.734375 46.484375 C 69.847656 47.476562 70.253906 48.296875 70.964844 48.933594 C 71.675781 49.570312 72.515625 49.886719 73.5 49.886719 L 84.359375 49.886719 C 85.695312 49.886719 86.832031 49.410156 87.769531 48.46875 C 88.707031 47.523438 89.179688 46.378906 89.179688 45.035156 L 89.179688 43.875 L 91.648438 43.875 L 91.648438 51.308594 L 98.582031 51.308594 L 98.582031 23.558594 L 98.566406 23.558594 L 98.566406 23.539062 Z M 98.570312 23.539062 " fill-opacity="1" fill-rule="nonzero"/><path fill="#ff3333" d="M 108.128906 29.171875 L 120.621094 29.171875 L 120.621094 29.753906 L 109.277344 33.601562 C 108.84375 33.839844 108.628906 34.171875 108.628906 34.605469 L 108.628906 46.34375 C 108.628906 46.847656 108.90625 47.207031 109.46875 47.414062 L 119.367188 49.070312 C 119.726562 49.132812 120.027344 49.300781 120.265625 49.582031 C 120.5 49.855469 120.621094 50.179688 120.621094 50.539062 L 120.621094 51.316406 L 126.664062 51.316406 L 126.664062 23.539062 L 108.128906 23.539062 Z M 120.410156 43.65625 L 120.019531 43.742188 L 114.183594 41.828125 C 113.851562 41.648438 113.617188 41.378906 113.472656 41.015625 L 113.242188 39.558594 C 113.1875 39.113281 113.359375 38.777344 113.75 38.554688 L 119.054688 37.292969 C 119.332031 37.222656 119.554688 37.183594 119.726562 37.179688 C 119.90625 37.171875 120.039062 37.183594 120.125 37.222656 C 120.214844 37.257812 120.285156 37.300781 120.332031 37.363281 C 120.375 37.417969 120.398438 37.460938 120.402344 37.507812 C 120.402344 37.546875 120.410156 37.566406 120.410156 37.566406 Z M 120.410156 43.65625 " fill-opacity="1" fill-rule="nonzero"/><path fill="#ff3333" d="M 140.308594 45.496094 C 141.21875 45.101562 141.980469 44.5625 142.59375 43.882812 C 143.207031 43.203125 143.511719 42.449219 143.511719 41.621094 L 143.511719 31.601562 C 143.511719 31.128906 143.347656 30.71875 143.019531 30.386719 C 142.6875 30.050781 142.292969 29.886719 141.820312 29.886719 L 128.597656 29.886719 L 128.597656 39.820312 C 128.597656 40.140625 128.710938 40.417969 128.941406 40.648438 C 129.171875 40.878906 129.449219 40.996094 129.773438 40.996094 L 134.78125 40.996094 C 135.246094 40.996094 135.636719 40.832031 135.960938 40.503906 C 136.285156 40.175781 136.449219 39.777344 136.449219 39.320312 L 136.449219 34.210938 C 136.449219 33.949219 136.289062 33.785156 135.96875 33.730469 L 134.742188 33.730469 C 134.472656 33.730469 134.3125 33.890625 134.257812 34.210938 L 134.257812 36.570312 L 132.253906 36.570312 L 132.253906 33.609375 C 132.253906 33.28125 132.375 33.011719 132.613281 32.785156 C 132.859375 32.566406 133.148438 32.449219 133.484375 32.449219 L 136.582031 32.449219 C 137.167969 32.449219 137.664062 32.644531 138.082031 33.03125 C 138.5 33.417969 138.710938 33.878906 138.710938 34.421875 L 138.710938 40.300781 C 138.710938 40.851562 138.5 41.316406 138.082031 41.707031 C 137.664062 42.089844 137.167969 42.28125 136.582031 42.28125 L 130.085938 42.28125 C 129.625 42.28125 129.242188 42.4375 128.933594 42.753906 C 128.628906 43.074219 128.476562 43.457031 128.476562 43.921875 L 128.511719 48.328125 L 140.882812 53.726562 L 144.878906 49.230469 L 137.605469 46.101562 C 138.496094 46.101562 139.398438 45.90625 140.3125 45.503906 Z M 140.308594 45.496094 " fill-opacity="1" fill-rule="nonzero"/><path fill="#ff3333" d="M 128.199219 23.539062 L 143.703125 23.539062 L 143.703125 29.152344 L 128.199219 29.152344 Z M 128.199219 23.539062 " fill-opacity="1" fill-rule="nonzero"/><path fill="#ff3333" d="M 145.117188 23.539062 L 151.34375 23.539062 L 151.34375 51.324219 L 145.117188 51.324219 Z M 145.117188 23.539062 " fill-opacity="1" fill-rule="nonzero"/><path fill="#ff3333" d="M 175.367188 36.96875 C 175.144531 36.625 174.816406 36.335938 174.382812 36.089844 C 174.03125 35.886719 173.582031 35.769531 173.039062 35.734375 C 173.136719 35.667969 173.246094 35.613281 173.363281 35.5625 C 173.640625 35.441406 173.925781 35.285156 174.210938 35.09375 C 174.492188 34.902344 174.738281 34.597656 174.941406 34.171875 C 175.148438 33.746094 175.246094 33.101562 175.246094 32.230469 L 175.246094 26.855469 C 175.246094 26.394531 175.226562 25.980469 175.179688 25.617188 C 175.140625 25.253906 175.058594 24.945312 174.933594 24.6875 C 174.808594 24.425781 174.617188 24.214844 174.355469 24.050781 C 174.097656 23.878906 173.761719 23.757812 173.339844 23.679688 C 172.925781 23.605469 172.40625 23.5625 171.777344 23.5625 L 164.421875 23.5625 C 163.558594 23.5625 162.851562 23.71875 162.300781 24.039062 C 161.75 24.355469 161.347656 24.773438 161.085938 25.296875 C 160.828125 25.820312 160.703125 26.40625 160.703125 27.046875 L 160.703125 33.828125 C 160.703125 34.125 160.808594 34.382812 161.023438 34.597656 C 161.238281 34.808594 161.496094 34.917969 161.789062 34.917969 L 166.714844 34.917969 C 167.007812 34.917969 167.234375 34.8125 167.394531 34.605469 C 167.554688 34.394531 167.683594 34.144531 167.777344 33.847656 L 167.953125 32.964844 C 167.992188 32.699219 168.003906 32.429688 167.992188 32.164062 L 167.824219 29.316406 C 167.765625 29.101562 167.652344 28.996094 167.46875 28.996094 L 166.304688 28.996094 C 166.101562 28.996094 165.992188 29.113281 165.960938 29.347656 L 165.960938 31.015625 L 164.042969 31.015625 L 164.042969 28.867188 C 164.042969 28.324219 164.171875 27.960938 164.425781 27.769531 C 164.6875 27.578125 164.992188 27.484375 165.34375 27.476562 C 165.703125 27.46875 166.023438 27.464844 166.316406 27.464844 L 167.574219 27.464844 C 168.074219 27.464844 168.457031 27.511719 168.71875 27.609375 C 168.984375 27.707031 169.160156 27.871094 169.253906 28.101562 C 169.34375 28.328125 169.390625 28.632812 169.390625 29.007812 L 169.390625 33.359375 C 169.390625 33.824219 169.359375 34.238281 169.296875 34.613281 C 169.234375 34.980469 169.085938 35.277344 168.847656 35.5 C 168.609375 35.726562 168.242188 35.835938 167.742188 35.835938 L 167.589844 35.96875 C 167.253906 36.25 167.082031 36.605469 167.070312 37.035156 C 167.042969 38.453125 167.59375 39.636719 168.71875 40.585938 L 169.117188 40.984375 L 171.523438 40.144531 C 171.550781 40.253906 171.566406 40.378906 171.566406 40.523438 L 171.566406 40.898438 C 171.566406 41.699219 171.113281 42.265625 170.207031 42.59375 C 169.300781 42.921875 167.917969 43.082031 166.050781 43.082031 L 163.292969 43.082031 C 162.320312 43.152344 161.621094 43.003906 161.203125 42.621094 C 160.785156 42.242188 160.515625 41.667969 160.390625 40.894531 C 160.265625 40.125 160.152344 39.175781 160.050781 38.054688 L 159.316406 31.230469 L 153.324219 31.507812 L 154.363281 41.527344 C 154.53125 43.457031 154.742188 45.039062 154.992188 46.269531 C 155.242188 47.503906 155.714844 48.414062 156.402344 49.003906 C 157.09375 49.589844 158.179688 49.871094 159.667969 49.839844 L 169.785156 49.839844 C 171.078125 49.839844 172.125 49.753906 172.925781 49.582031 C 173.722656 49.40625 174.339844 49.109375 174.773438 48.691406 C 175.207031 48.269531 175.503906 47.703125 175.664062 46.996094 C 175.824219 46.289062 175.902344 45.40625 175.902344 44.355469 L 175.902344 38.855469 C 175.902344 38.648438 175.867188 38.367188 175.800781 38.011719 C 175.730469 37.652344 175.585938 37.300781 175.359375 36.957031 Z M 175.367188 36.96875 " fill-opacity="1" fill-rule="nonzero"/><path fill="#ff3333" d="M 177.617188 29.171875 L 177.847656 29.171875 L 177.847656 30.09375 C 177.847656 30.09375 178.464844 30.578125 179.695312 31.542969 C 180.929688 32.507812 182.140625 33.484375 183.328125 34.472656 C 183.960938 34.996094 184.433594 35.40625 184.757812 35.710938 L 179.144531 37.375 C 178.710938 37.617188 178.496094 37.953125 178.496094 38.390625 L 178.496094 45.167969 C 178.496094 45.671875 178.765625 46.023438 179.3125 46.222656 L 188.402344 47.878906 C 188.675781 47.921875 189.121094 48.011719 189.738281 48.148438 C 190.359375 48.292969 190.949219 48.46875 191.496094 48.679688 C 192.046875 48.890625 192.324219 49.121094 192.324219 49.371094 L 192.324219 51.320312 L 198.363281 51.320312 L 198.363281 29.167969 L 198.507812 29.167969 L 198.507812 23.539062 L 177.613281 23.539062 L 177.613281 29.167969 Z M 192.113281 43.808594 L 191.59375 43.847656 C 190.789062 43.875 189.996094 43.773438 189.210938 43.53125 L 185.011719 41.976562 C 184.84375 41.847656 184.753906 41.613281 184.738281 41.261719 C 184.722656 40.910156 184.808594 40.667969 184.992188 40.527344 C 184.992188 40.527344 185.777344 40.128906 187.359375 39.339844 C 188.941406 38.554688 189.878906 38.109375 190.175781 38.011719 C 190.175781 38.011719 190.222656 37.25 190.320312 35.726562 C 190.414062 34.199219 190.457031 33.3125 190.441406 33.070312 C 188.339844 31.398438 186.699219 30.105469 185.527344 29.171875 L 192.113281 29.171875 Z M 192.113281 43.808594 " fill-opacity="1" fill-rule="nonzero"/><path fill="#ff3333" d="M 188.546875 49.773438 C 188.070312 49.578125 187.59375 49.421875 187.105469 49.308594 C 186.617188 49.195312 186.070312 49.125 185.46875 49.097656 L 184.285156 49.03125 L 183.949219 53.78125 L 184.90625 53.714844 C 185.617188 53.671875 186.25 53.714844 186.800781 53.859375 C 187.351562 54 187.953125 54.234375 188.601562 54.558594 L 189.320312 54.875 L 190.175781 50.519531 L 190.066406 50.460938 C 189.523438 50.195312 189.019531 49.964844 188.546875 49.769531 Z M 188.546875 49.773438 " fill-opacity="1" fill-rule="nonzero"/><path fill="#ff3333" d="M 200.257812 23.539062 L 206.484375 23.539062 L 206.484375 51.324219 L 200.257812 51.324219 Z M 200.257812 23.539062 " fill-opacity="1" fill-rule="nonzero"/><path fill="#ff3333" d="M 129.347656 12.148438 L 128.566406 12.148438 L 128.566406 12.371094 C 128.566406 12.628906 128.589844 12.90625 128.644531 13.199219 C 128.515625 12.96875 128.339844 12.855469 128.109375 12.855469 L 123.226562 12.855469 L 123.226562 13.527344 L 126.34375 13.527344 L 126.34375 14.09375 C 125.425781 14.335938 124.554688 14.824219 123.738281 15.542969 L 123.738281 16.398438 L 126.34375 18.339844 L 127.132812 18.339844 L 127.132812 13.53125 L 128.035156 13.53125 C 128.230469 13.53125 128.363281 13.578125 128.4375 13.679688 C 128.511719 13.78125 128.554688 13.941406 128.554688 14.160156 L 128.554688 18.339844 L 129.351562 18.339844 L 129.351562 13.53125 L 130.230469 13.53125 L 130.230469 12.859375 L 129.351562 12.859375 L 129.351562 12.15625 Z M 126.34375 17.4375 L 124.445312 15.964844 C 125.03125 15.472656 125.667969 15.101562 126.34375 14.851562 Z M 126.34375 17.4375 " fill-opacity="1" fill-rule="nonzero"/><path fill="#ff3333" d="M 130.488281 16.457031 L 133.398438 18.351562 L 133.398438 17.527344 L 130.488281 15.613281 Z M 130.488281 16.457031 " fill-opacity="1" fill-rule="nonzero"/><path fill="#ff3333" d="M 131.816406 15.390625 C 132.21875 15.390625 132.539062 15.265625 132.792969 15.023438 C 133.050781 14.777344 133.179688 14.464844 133.179688 14.082031 C 133.179688 13.703125 133.050781 13.394531 132.792969 13.148438 C 132.539062 12.90625 132.214844 12.78125 131.816406 12.78125 C 131.417969 12.78125 131.085938 12.90625 130.832031 13.148438 C 130.578125 13.390625 130.453125 13.707031 130.453125 14.082031 C 130.453125 14.460938 130.578125 14.773438 130.832031 15.023438 C 131.085938 15.265625 131.414062 15.390625 131.816406 15.390625 Z M 131.351562 13.605469 C 131.464844 13.472656 131.617188 13.410156 131.816406 13.410156 C 132.011719 13.410156 132.160156 13.472656 132.273438 13.605469 C 132.386719 13.730469 132.445312 13.886719 132.445312 14.085938 C 132.445312 14.285156 132.386719 14.449219 132.273438 14.574219 C 132.160156 14.703125 132.007812 14.761719 131.816406 14.761719 C 131.621094 14.761719 131.464844 14.703125 131.351562 14.574219 C 131.238281 14.453125 131.179688 14.289062 131.179688 14.085938 C 131.179688 13.886719 131.238281 13.730469 131.351562 13.605469 Z M 131.351562 13.605469 " fill-opacity="1" fill-rule="nonzero"/><path fill="#ff3333" d="M 142.820312 17.609375 C 142.679688 17.609375 142.5625 17.65625 142.46875 17.757812 C 142.371094 17.855469 142.328125 17.976562 142.328125 18.117188 C 142.328125 18.257812 142.371094 18.371094 142.46875 18.46875 C 142.566406 18.566406 142.679688 18.609375 142.820312 18.609375 C 142.957031 18.609375 143.078125 18.5625 143.175781 18.46875 C 143.277344 18.371094 143.324219 18.253906 143.324219 18.117188 C 143.324219 17.980469 143.277344 17.855469 143.175781 17.757812 C 143.078125 17.65625 142.960938 17.609375 142.820312 17.609375 Z M 142.820312 17.609375 " fill-opacity="1" fill-rule="nonzero"/><path fill="#ff3333" d="M 141.871094 12.855469 L 141.328125 12.855469 L 141.328125 12.152344 L 140.542969 12.152344 L 140.542969 12.375 C 140.542969 12.632812 140.570312 12.910156 140.621094 13.203125 C 140.496094 12.972656 140.316406 12.859375 140.085938 12.859375 L 133.480469 12.859375 L 133.480469 13.53125 L 138.296875 13.53125 L 138.296875 14.660156 C 138.144531 14.4375 137.914062 14.324219 137.605469 14.324219 C 137.351562 14.324219 137.140625 14.402344 136.96875 14.550781 C 136.804688 14.699219 136.691406 14.894531 136.636719 15.136719 C 136.582031 14.898438 136.453125 14.707031 136.25 14.5625 C 136.042969 14.414062 135.785156 14.335938 135.472656 14.335938 C 135.027344 14.335938 134.671875 14.484375 134.417969 14.773438 C 134.164062 15.0625 134.039062 15.425781 134.039062 15.863281 C 134.039062 16.359375 134.179688 16.746094 134.464844 17.027344 C 134.753906 17.308594 135.136719 17.449219 135.613281 17.449219 C 135.832031 17.449219 136.03125 17.429688 136.210938 17.390625 L 136.210938 16.707031 C 136.027344 16.738281 135.851562 16.753906 135.691406 16.753906 C 135.4375 16.753906 135.230469 16.679688 135.070312 16.53125 C 134.914062 16.375 134.835938 16.15625 134.835938 15.859375 C 134.835938 15.605469 134.898438 15.410156 135.023438 15.257812 C 135.152344 15.105469 135.324219 15.03125 135.542969 15.03125 C 136.007812 15.03125 136.242188 15.339844 136.242188 15.941406 L 136.242188 16.136719 L 137.054688 16.136719 L 137.054688 15.972656 C 137.054688 15.339844 137.269531 15.019531 137.699219 15.019531 C 137.917969 15.019531 138.070312 15.097656 138.164062 15.253906 C 138.253906 15.410156 138.296875 15.59375 138.296875 15.800781 L 138.296875 18.339844 L 139.101562 18.339844 L 139.101562 13.53125 L 140.011719 13.53125 C 140.207031 13.53125 140.339844 13.578125 140.414062 13.679688 C 140.488281 13.78125 140.53125 13.941406 140.53125 14.160156 L 140.53125 18.339844 L 141.328125 18.339844 L 141.328125 13.53125 L 144.988281 13.53125 L 144.988281 14.097656 C 144.070312 14.339844 143.203125 14.828125 142.382812 15.546875 L 142.382812 16.402344 L 144.988281 18.34375 L 145.78125 18.34375 L 145.78125 13.535156 L 146.648438 13.535156 L 146.648438 12.863281 L 141.871094 12.863281 Z M 144.988281 17.4375 L 143.089844 15.964844 C 143.675781 15.472656 144.3125 15.101562 144.988281 14.851562 Z M 144.988281 17.4375 " fill-opacity="1" fill-rule="nonzero"/><path fill="#ff3333" d="M 165.972656 15.484375 C 165.972656 15.074219 165.832031 14.730469 165.554688 14.449219 C 165.277344 14.167969 164.914062 14.027344 164.460938 14.027344 C 164.007812 14.027344 163.683594 14.148438 163.425781 14.394531 C 163.171875 14.636719 163.039062 14.949219 163.039062 15.335938 C 163.039062 15.546875 163.070312 15.734375 163.132812 15.902344 L 163.882812 15.902344 C 163.835938 15.734375 163.8125 15.566406 163.8125 15.394531 C 163.8125 15.191406 163.875 15.027344 163.992188 14.902344 C 164.113281 14.769531 164.277344 14.707031 164.480469 14.707031 C 164.699219 14.707031 164.867188 14.777344 164.992188 14.914062 C 165.121094 15.050781 165.183594 15.242188 165.183594 15.492188 C 165.183594 15.832031 165.082031 16.097656 164.875 16.285156 C 164.671875 16.472656 164.367188 16.570312 163.960938 16.574219 L 163.210938 16.574219 L 163.210938 17.246094 L 164.863281 18.429688 L 165.953125 18.429688 L 165.953125 18.34375 L 164.277344 17.152344 C 164.800781 17.109375 165.214844 16.941406 165.519531 16.644531 C 165.824219 16.351562 165.976562 15.964844 165.976562 15.492188 Z M 165.972656 15.484375 " fill-opacity="1" fill-rule="nonzero"/><path fill="#ff3333" d="M 167.953125 12.148438 L 167.167969 12.148438 L 167.167969 12.371094 C 167.167969 12.628906 167.195312 12.90625 167.246094 13.199219 C 167.121094 12.96875 166.941406 12.855469 166.710938 12.855469 L 157.460938 12.855469 L 157.460938 12.152344 L 156.683594 12.152344 L 156.683594 12.375 C 156.683594 12.632812 156.707031 12.910156 156.753906 13.203125 C 156.628906 12.972656 156.449219 12.859375 156.21875 12.859375 L 148.269531 12.859375 L 148.269531 13.53125 L 154.425781 13.53125 L 154.425781 16.808594 C 154.242188 16.539062 153.941406 16.40625 153.527344 16.40625 L 153.429688 16.40625 C 153.519531 16.136719 153.570312 15.863281 153.570312 15.582031 C 153.570312 15.128906 153.433594 14.746094 153.167969 14.449219 C 152.898438 14.144531 152.546875 13.988281 152.105469 13.988281 C 151.703125 13.988281 151.386719 14.113281 151.15625 14.355469 C 150.921875 14.597656 150.808594 14.914062 150.808594 15.289062 C 150.808594 15.523438 150.84375 15.746094 150.921875 15.957031 L 151.636719 15.957031 C 151.585938 15.765625 151.558594 15.570312 151.558594 15.375 C 151.558594 15.167969 151.601562 14.996094 151.699219 14.867188 C 151.800781 14.734375 151.941406 14.664062 152.128906 14.664062 C 152.335938 14.664062 152.492188 14.75 152.597656 14.914062 C 152.707031 15.082031 152.761719 15.304688 152.761719 15.578125 C 152.761719 16.023438 152.636719 16.382812 152.390625 16.660156 C 152.148438 16.933594 151.800781 17.066406 151.34375 17.066406 C 150.855469 17.066406 150.472656 16.910156 150.1875 16.59375 C 149.90625 16.277344 149.769531 15.824219 149.769531 15.238281 C 149.769531 14.917969 149.785156 14.628906 149.824219 14.371094 L 149.046875 14.371094 C 149 14.648438 148.976562 14.933594 148.976562 15.230469 C 148.976562 16.011719 149.1875 16.625 149.613281 17.085938 C 150.039062 17.546875 150.617188 17.773438 151.355469 17.773438 C 152.089844 17.773438 152.625 17.546875 153.039062 17.085938 L 153.480469 17.085938 C 154.113281 17.085938 154.425781 17.476562 154.425781 18.246094 L 154.425781 18.339844 L 155.234375 18.339844 L 155.234375 13.53125 L 156.148438 13.53125 C 156.347656 13.53125 156.480469 13.578125 156.554688 13.679688 C 156.625 13.78125 156.660156 13.941406 156.660156 14.160156 L 156.660156 18.339844 L 157.460938 18.339844 L 157.460938 13.53125 L 161.121094 13.53125 L 161.121094 14.097656 C 160.203125 14.339844 159.332031 14.828125 158.515625 15.546875 L 158.515625 16.402344 L 161.121094 18.34375 L 161.910156 18.34375 L 161.910156 13.535156 L 166.640625 13.535156 C 166.835938 13.535156 166.96875 13.582031 167.042969 13.683594 C 167.117188 13.785156 167.15625 13.945312 167.15625 14.164062 L 167.15625 18.34375 L 167.957031 18.34375 L 167.957031 13.535156 L 168.835938 13.535156 L 168.835938 12.863281 L 167.957031 12.863281 L 167.957031 12.160156 Z M 161.121094 17.4375 L 159.222656 15.964844 C 159.808594 15.472656 160.445312 15.101562 161.121094 14.851562 Z M 161.121094 17.4375 " fill-opacity="1" fill-rule="nonzero"/><path fill="#ff3333" d="M 172.3125 15.492188 C 172.589844 15.421875 172.8125 15.265625 172.980469 15.03125 C 173.152344 14.800781 173.238281 14.515625 173.238281 14.183594 C 173.238281 13.78125 173.101562 13.441406 172.824219 13.171875 C 172.554688 12.898438 172.1875 12.765625 171.71875 12.765625 C 171.25 12.765625 170.929688 12.890625 170.683594 13.136719 C 170.433594 13.378906 170.3125 13.691406 170.3125 14.0625 C 170.3125 14.222656 170.339844 14.40625 170.390625 14.625 L 171.140625 14.625 C 171.101562 14.429688 171.085938 14.269531 171.085938 14.144531 C 171.085938 13.925781 171.140625 13.757812 171.257812 13.632812 C 171.375 13.503906 171.539062 13.441406 171.746094 13.441406 C 171.957031 13.441406 172.132812 13.511719 172.246094 13.648438 C 172.363281 13.789062 172.421875 13.972656 172.421875 14.195312 C 172.421875 14.484375 172.339844 14.722656 172.175781 14.898438 C 172.007812 15.078125 171.765625 15.164062 171.445312 15.164062 L 171.21875 15.164062 L 171.21875 15.863281 L 171.460938 15.863281 C 171.863281 15.863281 172.167969 15.929688 172.367188 16.058594 C 172.570312 16.191406 172.664062 16.386719 172.660156 16.652344 C 172.65625 16.921875 172.566406 17.132812 172.382812 17.285156 C 172.203125 17.4375 171.957031 17.511719 171.625 17.511719 C 171.113281 17.511719 170.699219 17.332031 170.398438 16.964844 C 170.097656 16.601562 169.949219 16.050781 169.949219 15.324219 C 169.949219 15.132812 169.949219 14.984375 169.964844 14.871094 L 169.203125 14.871094 C 169.183594 15.023438 169.171875 15.1875 169.171875 15.363281 C 169.171875 16.246094 169.394531 16.9375 169.847656 17.445312 C 170.296875 17.945312 170.894531 18.199219 171.625 18.199219 C 172.183594 18.199219 172.625 18.066406 172.957031 17.796875 C 173.296875 17.523438 173.464844 17.164062 173.464844 16.710938 C 173.464844 16.351562 173.351562 16.0625 173.136719 15.851562 C 172.917969 15.644531 172.644531 15.519531 172.308594 15.488281 Z M 172.3125 15.492188 " fill-opacity="1" fill-rule="nonzero"/><path fill="#ff3333" d="M 175.164062 18.1875 C 175.027344 18.1875 174.910156 18.238281 174.816406 18.335938 C 174.71875 18.429688 174.675781 18.550781 174.675781 18.6875 C 174.675781 18.835938 174.71875 18.957031 174.808594 19.046875 C 174.902344 19.140625 175.023438 19.1875 175.164062 19.1875 C 175.308594 19.1875 175.425781 19.140625 175.523438 19.046875 C 175.621094 18.949219 175.671875 18.832031 175.671875 18.6875 C 175.671875 18.546875 175.621094 18.429688 175.523438 18.335938 C 175.425781 18.238281 175.308594 18.1875 175.164062 18.1875 Z M 175.164062 18.1875 " fill-opacity="1" fill-rule="nonzero"/><path fill="#ff3333" d="M 180.191406 12.148438 L 179.40625 12.148438 L 179.40625 12.371094 C 179.40625 12.628906 179.433594 12.90625 179.484375 13.199219 C 179.359375 12.96875 179.179688 12.855469 178.949219 12.855469 L 173.707031 12.855469 L 173.707031 13.527344 L 174.332031 13.527344 L 174.332031 14.128906 L 175.746094 15.085938 L 174.3125 16.125 L 174.3125 16.964844 L 177.179688 18.335938 L 177.972656 18.335938 L 177.972656 13.527344 L 178.878906 13.527344 C 179.070312 13.527344 179.207031 13.574219 179.28125 13.675781 C 179.355469 13.777344 179.394531 13.9375 179.394531 14.15625 L 179.394531 18.335938 L 180.195312 18.335938 L 180.195312 13.527344 L 181.070312 13.527344 L 181.070312 12.855469 L 180.195312 12.855469 L 180.195312 12.152344 Z M 177.175781 17.515625 L 175.105469 16.480469 L 176.449219 15.476562 L 176.449219 14.703125 L 174.820312 13.527344 L 177.175781 13.527344 Z M 177.175781 17.515625 " fill-opacity="1" fill-rule="nonzero"/><path fill="#ff3333" d="M 188.8125 12.148438 L 188.027344 12.148438 L 188.027344 12.371094 C 188.027344 12.628906 188.050781 12.90625 188.105469 13.199219 C 187.976562 12.96875 187.800781 12.855469 187.570312 12.855469 L 182.6875 12.855469 L 182.6875 13.527344 L 185.804688 13.527344 L 185.804688 14.09375 C 184.886719 14.335938 184.015625 14.824219 183.199219 15.542969 L 183.199219 16.398438 L 185.804688 18.339844 L 186.597656 18.339844 L 186.597656 13.53125 L 187.5 13.53125 C 187.691406 13.53125 187.824219 13.578125 187.898438 13.679688 C 187.976562 13.78125 188.015625 13.941406 188.015625 14.160156 L 188.015625 18.339844 L 188.8125 18.339844 L 188.8125 13.53125 L 189.691406 13.53125 L 189.691406 12.859375 L 188.8125 12.859375 Z M 185.804688 17.4375 L 183.90625 15.964844 C 184.492188 15.472656 185.128906 15.101562 185.804688 14.851562 Z M 185.804688 17.4375 " fill-opacity="1" fill-rule="nonzero"/><path fill="#ff3333" d="M 191.277344 15.390625 C 191.679688 15.390625 192.003906 15.265625 192.253906 15.023438 C 192.511719 14.777344 192.640625 14.464844 192.640625 14.082031 C 192.640625 13.703125 192.511719 13.394531 192.253906 13.148438 C 192.003906 12.90625 191.675781 12.78125 191.277344 12.78125 C 190.878906 12.78125 190.550781 12.90625 190.292969 13.148438 C 190.039062 13.390625 189.914062 13.707031 189.914062 14.082031 C 189.914062 14.460938 190.039062 14.773438 190.292969 15.023438 C 190.550781 15.265625 190.875 15.390625 191.277344 15.390625 Z M 190.8125 13.605469 C 190.929688 13.472656 191.082031 13.410156 191.277344 13.410156 C 191.476562 13.410156 191.625 13.472656 191.734375 13.605469 C 191.851562 13.730469 191.90625 13.886719 191.90625 14.085938 C 191.90625 14.285156 191.851562 14.449219 191.734375 14.574219 C 191.625 14.703125 191.472656 14.761719 191.277344 14.761719 C 191.085938 14.761719 190.929688 14.703125 190.8125 14.574219 C 190.699219 14.453125 190.644531 14.289062 190.644531 14.085938 C 190.644531 13.886719 190.699219 13.730469 190.8125 13.605469 Z M 190.8125 13.605469 " fill-opacity="1" fill-rule="nonzero"/><path fill="#ff3333" d="M 189.953125 16.457031 L 192.859375 18.351562 L 192.859375 17.527344 L 189.953125 15.613281 Z M 189.953125 16.457031 " fill-opacity="1" fill-rule="nonzero"/><path fill="#ff3333" d="M 201.671875 12.855469 L 200.792969 12.855469 L 200.792969 12.152344 L 200.011719 12.152344 L 200.011719 12.375 C 200.011719 12.632812 200.035156 12.910156 200.089844 13.203125 C 199.960938 12.972656 199.785156 12.859375 199.554688 12.859375 L 192.945312 12.859375 L 192.945312 13.53125 L 197.761719 13.53125 L 197.761719 14.660156 C 197.609375 14.4375 197.378906 14.324219 197.070312 14.324219 C 196.820312 14.324219 196.605469 14.402344 196.4375 14.550781 C 196.269531 14.699219 196.15625 14.894531 196.101562 15.136719 C 196.050781 14.898438 195.917969 14.707031 195.714844 14.5625 C 195.511719 14.414062 195.25 14.335938 194.9375 14.335938 C 194.492188 14.335938 194.140625 14.484375 193.882812 14.773438 C 193.628906 15.0625 193.503906 15.425781 193.503906 15.863281 C 193.503906 16.359375 193.644531 16.746094 193.929688 17.027344 C 194.222656 17.308594 194.605469 17.449219 195.078125 17.449219 C 195.296875 17.449219 195.496094 17.429688 195.679688 17.390625 L 195.679688 16.707031 C 195.492188 16.738281 195.316406 16.753906 195.15625 16.753906 C 194.90625 16.753906 194.695312 16.679688 194.535156 16.53125 C 194.382812 16.375 194.304688 16.15625 194.304688 15.859375 C 194.304688 15.605469 194.363281 15.410156 194.488281 15.257812 C 194.617188 15.105469 194.789062 15.03125 195.007812 15.03125 C 195.472656 15.03125 195.707031 15.339844 195.707031 15.941406 L 195.707031 16.136719 L 196.519531 16.136719 L 196.519531 15.972656 C 196.519531 15.339844 196.738281 15.019531 197.164062 15.019531 C 197.382812 15.019531 197.535156 15.097656 197.628906 15.253906 C 197.71875 15.410156 197.761719 15.59375 197.761719 15.800781 L 197.761719 18.339844 L 198.570312 18.339844 L 198.570312 13.53125 L 199.480469 13.53125 C 199.671875 13.53125 199.804688 13.578125 199.878906 13.679688 C 199.953125 13.78125 199.996094 13.941406 199.996094 14.160156 L 199.996094 18.339844 L 200.792969 18.339844 L 200.792969 13.53125 L 201.964844 13.53125 L 201.964844 14.132812 L 203.378906 15.089844 L 201.941406 16.128906 L 201.941406 16.96875 L 204.8125 18.339844 L 205.601562 18.339844 L 205.601562 13.53125 L 206.488281 13.53125 L 206.488281 12.859375 L 201.671875 12.859375 Z M 204.808594 17.515625 L 202.738281 16.480469 L 204.078125 15.476562 L 204.078125 14.703125 L 202.453125 13.527344 L 204.808594 13.527344 Z M 204.808594 17.515625 " fill-opacity="1" fill-rule="nonzero"/><path fill="#ff3333" d="M 202.796875 18.1875 C 202.660156 18.1875 202.542969 18.238281 202.449219 18.335938 C 202.351562 18.429688 202.308594 18.550781 202.308594 18.6875 C 202.308594 18.835938 202.351562 18.957031 202.441406 19.046875 C 202.535156 19.140625 202.65625 19.1875 202.796875 19.1875 C 202.9375 19.1875 203.058594 19.140625 203.152344 19.046875 C 203.253906 18.949219 203.304688 18.832031 203.304688 18.6875 C 203.304688 18.546875 203.253906 18.429688 203.152344 18.335938 C 203.058594 18.238281 202.9375 18.1875 202.796875 18.1875 Z M 202.796875 18.1875 " fill-opacity="1" fill-rule="nonzero"/><path fill="#ff3333" d="M 126.355469 58.0625 L 127.894531 58.0625 L 128.777344 61.984375 L 129.460938 58.0625 L 131.023438 58.0625 L 129.734375 63.109375 L 127.785156 63.109375 L 127.121094 59.996094 L 126.460938 63.109375 L 124.511719 63.109375 L 123.222656 58.0625 L 124.785156 58.0625 L 125.46875 61.984375 L 126.351562 58.0625 Z M 126.355469 58.0625 " fill-opacity="1" fill-rule="nonzero"/><path fill="#ff3333" d="M 134.320312 58.0625 L 135.863281 58.0625 L 136.742188 61.984375 L 137.425781 58.0625 L 138.992188 58.0625 L 137.703125 63.109375 L 135.75 63.109375 L 135.089844 59.996094 L 134.429688 63.109375 L 132.476562 63.109375 L 131.1875 58.0625 L 132.753906 58.0625 L 133.4375 61.984375 L 134.316406 58.0625 Z M 134.320312 58.0625 " fill-opacity="1" fill-rule="nonzero"/><path fill="#ff3333" d="M 142.292969 58.0625 L 143.832031 58.0625 L 144.714844 61.984375 L 145.398438 58.0625 L 146.960938 58.0625 L 145.671875 63.109375 L 143.722656 63.109375 L 143.058594 59.996094 L 142.398438 63.109375 L 140.449219 63.109375 L 139.160156 58.0625 L 140.722656 58.0625 L 141.40625 61.984375 L 142.289062 58.0625 Z M 142.292969 58.0625 " fill-opacity="1" fill-rule="nonzero"/><path fill="#ff3333" d="M 147.757812 62.472656 C 147.757812 62.265625 147.839844 62.089844 148.007812 61.945312 C 148.175781 61.796875 148.378906 61.722656 148.617188 61.722656 C 148.855469 61.722656 149.0625 61.796875 149.234375 61.945312 C 149.402344 62.089844 149.488281 62.269531 149.488281 62.472656 C 149.488281 62.679688 149.402344 62.855469 149.234375 62.996094 C 149.0625 63.144531 148.855469 63.21875 148.617188 63.21875 C 148.375 63.21875 148.171875 63.144531 148.007812 62.996094 C 147.839844 62.851562 147.757812 62.675781 147.757812 62.472656 Z M 147.757812 62.472656 " fill-opacity="1" fill-rule="nonzero"/><path fill="#ff3333" d="M 153.632812 58.0625 L 154.992188 58.0625 L 154.992188 63.109375 L 153.632812 63.109375 L 153.632812 62.734375 C 153.382812 63.058594 152.972656 63.21875 152.386719 63.21875 L 152.136719 63.21875 C 151.140625 63.21875 150.640625 62.761719 150.640625 61.851562 L 150.640625 59.324219 C 150.640625 58.417969 151.140625 57.960938 152.136719 57.960938 L 152.386719 57.960938 C 152.972656 57.960938 153.382812 58.121094 153.632812 58.4375 Z M 153.378906 62.019531 L 153.378906 59.164062 C 153.378906 59.113281 153.355469 59.0625 153.3125 59.023438 C 153.269531 58.980469 153.214844 58.960938 153.152344 58.960938 L 152.492188 58.960938 C 152.421875 58.960938 152.367188 58.980469 152.324219 59.023438 C 152.28125 59.0625 152.257812 59.113281 152.257812 59.164062 L 152.257812 62.019531 C 152.257812 62.074219 152.28125 62.125 152.324219 62.160156 C 152.367188 62.203125 152.421875 62.222656 152.492188 62.222656 L 153.152344 62.222656 C 153.214844 62.222656 153.269531 62.207031 153.3125 62.160156 C 153.355469 62.121094 153.378906 62.070312 153.378906 62.019531 Z M 153.378906 62.019531 " fill-opacity="1" fill-rule="nonzero"/><path fill="#ff3333" d="M 158.691406 57.960938 L 158.945312 57.960938 C 159.9375 57.960938 160.4375 58.417969 160.4375 59.324219 L 160.4375 61.851562 C 160.4375 62.761719 159.9375 63.21875 158.945312 63.21875 L 158.691406 63.21875 C 158.109375 63.21875 157.699219 63.058594 157.445312 62.734375 L 157.445312 63.109375 L 156.085938 63.109375 L 156.085938 56.417969 L 157.699219 56.417969 L 157.699219 58.210938 C 157.957031 58.046875 158.289062 57.960938 158.691406 57.960938 Z M 157.699219 59.160156 L 157.699219 62.015625 C 157.699219 62.070312 157.71875 62.121094 157.765625 62.15625 C 157.808594 62.199219 157.859375 62.21875 157.929688 62.21875 L 158.59375 62.21875 C 158.65625 62.21875 158.707031 62.203125 158.753906 62.15625 C 158.796875 62.117188 158.820312 62.066406 158.820312 62.015625 L 158.820312 59.160156 C 158.820312 59.109375 158.796875 59.058594 158.753906 59.019531 C 158.707031 58.976562 158.65625 58.957031 158.59375 58.957031 L 157.929688 58.957031 C 157.859375 58.957031 157.808594 58.976562 157.765625 59.019531 C 157.71875 59.058594 157.699219 59.109375 157.699219 59.160156 Z M 157.699219 59.160156 " fill-opacity="1" fill-rule="nonzero"/><path fill="#ff3333" d="M 163.140625 63.109375 L 161.523438 63.109375 L 161.523438 56.417969 L 163.140625 56.417969 L 163.140625 58.210938 C 163.382812 58.046875 163.714844 57.960938 164.128906 57.960938 L 164.386719 57.960938 C 165.378906 57.960938 165.875 58.417969 165.875 59.324219 L 165.875 63.109375 L 164.257812 63.109375 L 164.257812 59.160156 C 164.257812 59.109375 164.238281 59.058594 164.191406 59.019531 C 164.148438 58.976562 164.097656 58.957031 164.03125 58.957031 L 163.371094 58.957031 C 163.234375 58.957031 163.15625 59.015625 163.136719 59.136719 L 163.136719 63.105469 Z M 163.140625 63.109375 " fill-opacity="1" fill-rule="nonzero"/><path fill="#ff3333" d="M 169.957031 58.0625 L 171.316406 58.0625 L 171.316406 63.109375 L 169.957031 63.109375 L 169.957031 62.734375 C 169.707031 63.058594 169.292969 63.21875 168.710938 63.21875 L 168.460938 63.21875 C 167.460938 63.21875 166.964844 62.761719 166.964844 61.851562 L 166.964844 59.324219 C 166.964844 58.417969 167.460938 57.960938 168.460938 57.960938 L 168.710938 57.960938 C 169.292969 57.960938 169.707031 58.121094 169.957031 58.4375 Z M 169.703125 62.019531 L 169.703125 59.164062 C 169.703125 59.113281 169.679688 59.0625 169.636719 59.023438 C 169.59375 58.980469 169.539062 58.960938 169.476562 58.960938 L 168.816406 58.960938 C 168.746094 58.960938 168.691406 58.980469 168.648438 59.023438 C 168.605469 59.0625 168.582031 59.113281 168.582031 59.164062 L 168.582031 62.019531 C 168.582031 62.074219 168.605469 62.125 168.648438 62.160156 C 168.691406 62.203125 168.746094 62.222656 168.816406 62.222656 L 169.476562 62.222656 C 169.539062 62.222656 169.59375 62.207031 169.636719 62.160156 C 169.679688 62.121094 169.703125 62.070312 169.703125 62.019531 Z M 169.703125 62.019531 " fill-opacity="1" fill-rule="nonzero"/><path fill="#ff3333" d="M 175.085938 58.0625 L 176.628906 58.0625 L 177.511719 61.984375 L 178.195312 58.0625 L 179.757812 58.0625 L 178.46875 63.109375 L 176.519531 63.109375 L 175.855469 59.996094 L 175.195312 63.109375 L 173.246094 63.109375 L 171.957031 58.0625 L 173.519531 58.0625 L 174.203125 61.984375 Z M 175.085938 58.0625 " fill-opacity="1" fill-rule="nonzero"/><path fill="#ff3333" d="M 183.371094 58.0625 L 184.730469 58.0625 L 184.730469 63.109375 L 183.371094 63.109375 L 183.371094 62.734375 C 183.121094 63.058594 182.710938 63.21875 182.125 63.21875 L 181.875 63.21875 C 180.878906 63.21875 180.378906 62.761719 180.378906 61.851562 L 180.378906 59.324219 C 180.378906 58.417969 180.878906 57.960938 181.875 57.960938 L 182.125 57.960938 C 182.710938 57.960938 183.121094 58.121094 183.371094 58.4375 Z M 183.113281 62.019531 L 183.113281 59.164062 C 183.113281 59.113281 183.09375 59.0625 183.046875 59.023438 C 183.003906 58.980469 182.949219 58.960938 182.886719 58.960938 L 182.226562 58.960938 C 182.15625 58.960938 182.105469 58.980469 182.058594 59.023438 C 182.015625 59.0625 181.992188 59.113281 181.992188 59.164062 L 181.992188 62.019531 C 181.992188 62.074219 182.015625 62.125 182.058594 62.160156 C 182.105469 62.203125 182.15625 62.222656 182.226562 62.222656 L 182.886719 62.222656 C 182.949219 62.222656 183.003906 62.207031 183.046875 62.160156 C 183.09375 62.121094 183.113281 62.070312 183.113281 62.019531 Z M 183.113281 62.019531 " fill-opacity="1" fill-rule="nonzero"/><path fill="#ff3333" d="M 185.992188 62.472656 C 185.992188 62.265625 186.074219 62.089844 186.242188 61.945312 C 186.414062 61.796875 186.613281 61.722656 186.851562 61.722656 C 187.089844 61.722656 187.296875 61.796875 187.46875 61.945312 C 187.640625 62.089844 187.726562 62.269531 187.726562 62.472656 C 187.726562 62.679688 187.640625 62.855469 187.46875 62.996094 C 187.296875 63.144531 187.09375 63.21875 186.851562 63.21875 C 186.609375 63.21875 186.410156 63.144531 186.242188 62.996094 C 186.074219 62.851562 185.992188 62.675781 185.992188 62.472656 Z M 185.992188 62.472656 " fill-opacity="1" fill-rule="nonzero"/><path fill="#ff3333" d="M 193.230469 60.050781 L 191.613281 60.050781 L 191.613281 59.164062 C 191.613281 59.113281 191.589844 59.0625 191.546875 59.023438 C 191.5 58.980469 191.449219 58.960938 191.386719 58.960938 L 190.722656 58.960938 C 190.652344 58.960938 190.601562 58.980469 190.558594 59.023438 C 190.511719 59.0625 190.492188 59.113281 190.492188 59.164062 L 190.492188 62.019531 C 190.492188 62.074219 190.511719 62.125 190.558594 62.160156 C 190.601562 62.203125 190.652344 62.222656 190.722656 62.222656 L 191.386719 62.222656 C 191.449219 62.222656 191.5 62.207031 191.546875 62.160156 C 191.589844 62.121094 191.613281 62.070312 191.613281 62.019531 L 191.613281 61.125 L 193.230469 61.125 L 193.230469 61.851562 C 193.230469 62.761719 192.730469 63.21875 191.738281 63.21875 L 190.378906 63.21875 C 189.378906 63.21875 188.882812 62.761719 188.882812 61.851562 L 188.882812 59.324219 C 188.882812 58.417969 189.378906 57.960938 190.378906 57.960938 L 191.738281 57.960938 C 192.730469 57.960938 193.230469 58.417969 193.230469 59.324219 Z M 193.230469 60.050781 " fill-opacity="1" fill-rule="nonzero"/><path fill="#ff3333" d="M 198.597656 59.324219 L 198.597656 61.851562 C 198.597656 62.761719 198.101562 63.21875 197.109375 63.21875 L 195.75 63.21875 C 194.75 63.21875 194.25 62.761719 194.25 61.851562 L 194.25 59.324219 C 194.25 58.417969 194.75 57.960938 195.75 57.960938 L 197.109375 57.960938 C 198.101562 57.960938 198.597656 58.417969 198.597656 59.324219 Z M 196.980469 62.132812 L 196.980469 59.023438 C 196.980469 58.972656 196.960938 58.921875 196.914062 58.882812 C 196.871094 58.839844 196.820312 58.816406 196.753906 58.816406 L 196.09375 58.816406 C 196.023438 58.816406 195.972656 58.839844 195.925781 58.882812 C 195.882812 58.921875 195.859375 58.972656 195.859375 59.023438 L 195.859375 62.132812 C 195.859375 62.195312 195.882812 62.242188 195.925781 62.285156 C 195.972656 62.324219 196.023438 62.347656 196.09375 62.347656 L 196.753906 62.347656 C 196.820312 62.347656 196.871094 62.328125 196.914062 62.285156 C 196.960938 62.242188 196.980469 62.195312 196.980469 62.132812 Z M 196.980469 62.132812 " fill-opacity="1" fill-rule="nonzero"/><path fill="#ff3333" d="M 204.992188 57.960938 C 205.984375 57.960938 206.484375 58.417969 206.484375 59.324219 L 206.484375 63.109375 L 204.867188 63.109375 L 204.867188 59.160156 C 204.867188 59.109375 204.84375 59.058594 204.800781 59.019531 C 204.753906 58.976562 204.703125 58.957031 204.640625 58.957031 L 204.125 58.957031 C 204.054688 58.957031 204 58.976562 203.957031 59.019531 C 203.914062 59.058594 203.890625 59.109375 203.890625 59.160156 L 203.890625 63.109375 L 202.273438 63.109375 L 202.273438 59.160156 C 202.273438 59.109375 202.25 59.058594 202.207031 59.019531 C 202.160156 58.976562 202.109375 58.957031 202.046875 58.957031 L 201.53125 58.957031 C 201.460938 58.957031 201.40625 58.976562 201.363281 59.019531 C 201.320312 59.058594 201.296875 59.109375 201.296875 59.160156 L 201.296875 63.109375 L 199.679688 63.109375 L 199.679688 58.0625 L 201.152344 58.0625 L 201.152344 58.324219 C 201.402344 58.085938 201.78125 57.960938 202.285156 57.960938 L 202.390625 57.960938 C 202.984375 57.960938 203.394531 58.121094 203.628906 58.4375 C 203.882812 58.121094 204.296875 57.960938 204.875 57.960938 Z M 204.992188 57.960938 " fill-opacity="1" fill-rule="nonzero"/><path fill="#ff3333" d="M 53.675781 22.625 L 54.722656 24.449219 C 54.816406 24.613281 54.875 24.792969 54.902344 24.980469 C 54.925781 25.167969 54.910156 25.355469 54.863281 25.539062 C 54.816406 25.722656 54.734375 25.890625 54.617188 26.042969 C 54.503906 26.191406 54.363281 26.316406 54.199219 26.414062 L 52.382812 27.464844 C 52.222656 27.558594 52.042969 27.621094 51.851562 27.644531 C 51.667969 27.671875 51.480469 27.660156 51.296875 27.609375 C 51.109375 27.554688 50.945312 27.476562 50.796875 27.363281 C 50.644531 27.246094 50.523438 27.105469 50.429688 26.941406 L 49.382812 25.117188 C 49.289062 24.953125 49.226562 24.773438 49.203125 24.582031 C 49.179688 24.394531 49.1875 24.210938 49.242188 24.023438 C 49.292969 23.835938 49.375 23.671875 49.488281 23.523438 C 49.605469 23.367188 49.746094 23.246094 49.910156 23.152344 L 51.722656 22.097656 C 51.886719 22.003906 52.066406 21.941406 52.25 21.917969 C 52.441406 21.894531 52.625 21.90625 52.808594 21.957031 C 52.992188 22.003906 53.15625 22.089844 53.308594 22.207031 C 53.460938 22.324219 53.582031 22.464844 53.679688 22.628906 Z M 53.675781 22.625 " fill-opacity="1" fill-rule="nonzero"/><path fill="#ff3333" d="M 43.730469 14.972656 L 45.542969 16.023438 C 45.707031 16.117188 45.847656 16.246094 45.964844 16.394531 C 46.078125 16.542969 46.160156 16.710938 46.207031 16.894531 C 46.257812 17.078125 46.273438 17.265625 46.246094 17.457031 C 46.21875 17.644531 46.160156 17.820312 46.066406 17.988281 L 45.019531 19.8125 C 44.921875 19.976562 44.800781 20.121094 44.652344 20.234375 C 44.503906 20.351562 44.332031 20.433594 44.152344 20.480469 C 43.972656 20.53125 43.785156 20.546875 43.597656 20.519531 C 43.410156 20.492188 43.230469 20.4375 43.070312 20.339844 L 41.253906 19.285156 C 41.09375 19.191406 40.949219 19.066406 40.835938 18.917969 C 40.71875 18.761719 40.640625 18.59375 40.589844 18.414062 C 40.542969 18.230469 40.527344 18.042969 40.554688 17.851562 C 40.578125 17.660156 40.640625 17.484375 40.730469 17.320312 L 41.78125 15.5 C 41.871094 15.335938 42 15.191406 42.148438 15.078125 C 42.296875 14.960938 42.46875 14.878906 42.644531 14.828125 C 42.828125 14.777344 43.011719 14.765625 43.203125 14.789062 C 43.386719 14.816406 43.566406 14.875 43.730469 14.96875 Z M 43.730469 14.972656 " fill-opacity="1" fill-rule="nonzero"/><path fill="#ff3333" d="M 31.316406 13.34375 L 33.40625 13.34375 C 33.597656 13.34375 33.777344 13.378906 33.953125 13.457031 C 34.128906 13.527344 34.285156 13.632812 34.417969 13.769531 C 34.550781 13.90625 34.65625 14.058594 34.726562 14.234375 C 34.800781 14.410156 34.839844 14.59375 34.839844 14.785156 L 34.839844 16.890625 C 34.839844 17.082031 34.800781 17.265625 34.726562 17.441406 C 34.65625 17.617188 34.550781 17.773438 34.417969 17.90625 C 34.285156 18.042969 34.128906 18.148438 33.953125 18.222656 C 33.777344 18.292969 33.597656 18.328125 33.40625 18.328125 L 31.316406 18.328125 C 31.125 18.328125 30.945312 18.292969 30.765625 18.222656 C 30.589844 18.152344 30.433594 18.046875 30.300781 17.90625 C 30.167969 17.769531 30.0625 17.617188 29.988281 17.441406 C 29.917969 17.265625 29.882812 17.082031 29.882812 16.890625 L 29.882812 14.785156 C 29.882812 14.59375 29.917969 14.410156 29.988281 14.234375 C 30.0625 14.058594 30.164062 13.902344 30.300781 13.769531 C 30.433594 13.632812 30.589844 13.53125 30.765625 13.457031 C 30.941406 13.378906 31.121094 13.34375 31.316406 13.34375 Z M 31.316406 13.34375 " fill-opacity="1" fill-rule="nonzero"/><path fill="#ff3333" d="M 19.746094 18.171875 L 21.5625 17.121094 C 21.726562 17.027344 21.902344 16.960938 22.089844 16.941406 C 22.277344 16.914062 22.464844 16.925781 22.644531 16.976562 C 22.828125 17.03125 22.996094 17.113281 23.144531 17.226562 C 23.296875 17.34375 23.417969 17.484375 23.511719 17.648438 L 24.558594 19.472656 C 24.652344 19.636719 24.714844 19.816406 24.738281 20.003906 C 24.761719 20.191406 24.75 20.378906 24.699219 20.5625 C 24.652344 20.746094 24.570312 20.914062 24.457031 21.066406 C 24.339844 21.21875 24.199219 21.339844 24.035156 21.4375 L 22.222656 22.492188 C 22.058594 22.585938 21.878906 22.644531 21.695312 22.671875 C 21.503906 22.695312 21.320312 22.683594 21.136719 22.632812 C 20.957031 22.585938 20.789062 22.503906 20.640625 22.386719 C 20.488281 22.269531 20.367188 22.128906 20.273438 21.964844 L 19.222656 20.140625 C 19.132812 19.976562 19.066406 19.796875 19.046875 19.609375 C 19.019531 19.421875 19.035156 19.234375 19.082031 19.046875 C 19.132812 18.859375 19.210938 18.695312 19.328125 18.546875 C 19.441406 18.394531 19.585938 18.269531 19.746094 18.175781 Z M 19.746094 18.171875 " fill-opacity="1" fill-rule="nonzero"/><path fill="#ff3333" d="M 12.136719 28.167969 L 13.1875 26.347656 C 13.277344 26.183594 13.40625 26.042969 13.554688 25.925781 C 13.703125 25.808594 13.871094 25.726562 14.050781 25.671875 C 14.234375 25.621094 14.417969 25.613281 14.609375 25.636719 C 14.792969 25.664062 14.972656 25.722656 15.136719 25.816406 L 16.949219 26.867188 C 17.113281 26.960938 17.253906 27.089844 17.371094 27.238281 C 17.484375 27.390625 17.566406 27.558594 17.613281 27.742188 C 17.664062 27.925781 17.679688 28.113281 17.652344 28.304688 C 17.625 28.492188 17.566406 28.667969 17.472656 28.832031 L 16.425781 30.65625 C 16.332031 30.820312 16.210938 30.960938 16.058594 31.078125 C 15.90625 31.199219 15.738281 31.277344 15.558594 31.328125 C 15.378906 31.378906 15.191406 31.390625 15.003906 31.367188 C 14.816406 31.339844 14.636719 31.285156 14.476562 31.1875 L 12.660156 30.132812 C 12.5 30.039062 12.355469 29.914062 12.242188 29.765625 C 12.125 29.609375 12.042969 29.441406 11.992188 29.257812 C 11.945312 29.078125 11.933594 28.890625 11.957031 28.699219 C 11.976562 28.507812 12.042969 28.332031 12.132812 28.167969 Z M 12.136719 28.167969 " fill-opacity="1" fill-rule="nonzero"/><path fill="#ff3333" d="M 10.515625 40.648438 L 10.515625 38.546875 C 10.515625 38.355469 10.550781 38.171875 10.621094 37.996094 C 10.695312 37.820312 10.796875 37.664062 10.933594 37.53125 C 11.066406 37.394531 11.222656 37.289062 11.398438 37.21875 C 11.574219 37.144531 11.753906 37.109375 11.945312 37.109375 L 14.035156 37.109375 C 14.226562 37.109375 14.40625 37.144531 14.585938 37.21875 C 14.761719 37.289062 14.917969 37.394531 15.050781 37.53125 C 15.183594 37.664062 15.289062 37.820312 15.363281 37.996094 C 15.433594 38.171875 15.472656 38.355469 15.472656 38.546875 L 15.472656 40.648438 C 15.472656 40.839844 15.433594 41.023438 15.363281 41.203125 C 15.289062 41.378906 15.1875 41.535156 15.050781 41.667969 C 14.914062 41.804688 14.761719 41.90625 14.585938 41.980469 C 14.410156 42.054688 14.230469 42.089844 14.035156 42.089844 L 11.945312 42.089844 C 11.753906 42.089844 11.574219 42.054688 11.398438 41.980469 C 11.222656 41.90625 11.066406 41.808594 10.933594 41.667969 C 10.800781 41.53125 10.695312 41.378906 10.621094 41.203125 C 10.550781 41.027344 10.515625 40.84375 10.515625 40.648438 Z M 10.515625 40.648438 " fill-opacity="1" fill-rule="nonzero"/><path fill="#ff3333" d="M 15.320312 52.277344 L 14.269531 50.453125 C 14.175781 50.289062 14.113281 50.109375 14.09375 49.921875 C 14.066406 49.734375 14.082031 49.546875 14.128906 49.359375 C 14.175781 49.171875 14.257812 49.007812 14.375 48.855469 C 14.488281 48.707031 14.632812 48.582031 14.792969 48.484375 L 16.609375 47.433594 C 16.769531 47.339844 16.949219 47.273438 17.136719 47.253906 C 17.324219 47.226562 17.511719 47.238281 17.691406 47.289062 C 17.875 47.339844 18.042969 47.425781 18.191406 47.539062 C 18.34375 47.65625 18.460938 47.796875 18.558594 47.960938 L 19.605469 49.785156 C 19.699219 49.949219 19.761719 50.128906 19.785156 50.316406 C 19.808594 50.503906 19.796875 50.691406 19.746094 50.875 C 19.699219 51.0625 19.617188 51.226562 19.503906 51.378906 C 19.386719 51.53125 19.246094 51.652344 19.082031 51.75 L 17.269531 52.804688 C 17.105469 52.898438 16.925781 52.957031 16.742188 52.984375 C 16.550781 53.007812 16.367188 52.996094 16.183594 52.945312 C 16.003906 52.898438 15.835938 52.816406 15.6875 52.699219 C 15.535156 52.582031 15.410156 52.441406 15.320312 52.277344 Z M 15.320312 52.277344 " fill-opacity="1" fill-rule="nonzero"/><path fill="#ff3333" d="M 25.261719 59.929688 L 23.449219 58.878906 C 23.285156 58.785156 23.148438 58.660156 23.027344 58.507812 C 22.914062 58.359375 22.832031 58.1875 22.78125 58.007812 C 22.730469 57.824219 22.71875 57.636719 22.742188 57.445312 C 22.769531 57.261719 22.828125 57.082031 22.921875 56.917969 L 23.96875 55.09375 C 24.0625 54.929688 24.1875 54.789062 24.335938 54.671875 C 24.488281 54.554688 24.65625 54.472656 24.839844 54.421875 C 25.019531 54.371094 25.207031 54.363281 25.394531 54.382812 C 25.585938 54.410156 25.761719 54.46875 25.921875 54.5625 L 27.738281 55.617188 C 27.902344 55.710938 28.039062 55.835938 28.15625 55.984375 C 28.273438 56.136719 28.355469 56.304688 28.40625 56.488281 C 28.457031 56.667969 28.464844 56.855469 28.441406 57.046875 C 28.417969 57.234375 28.363281 57.414062 28.265625 57.578125 L 27.21875 59.398438 C 27.125 59.566406 26.996094 59.707031 26.847656 59.824219 C 26.695312 59.9375 26.53125 60.019531 26.347656 60.070312 C 26.164062 60.117188 25.980469 60.132812 25.789062 60.105469 C 25.601562 60.082031 25.425781 60.019531 25.261719 59.925781 Z M 25.261719 59.929688 " fill-opacity="1" fill-rule="nonzero"/><path fill="#ff3333" d="M 37.679688 61.558594 L 35.589844 61.558594 C 35.398438 61.558594 35.21875 61.523438 35.039062 61.449219 C 34.863281 61.375 34.707031 61.277344 34.574219 61.136719 C 34.441406 61 34.335938 60.847656 34.261719 60.671875 C 34.191406 60.496094 34.15625 60.3125 34.15625 60.117188 L 34.15625 58.015625 C 34.15625 57.824219 34.191406 57.640625 34.261719 57.460938 C 34.335938 57.285156 34.4375 57.128906 34.574219 56.996094 C 34.710938 56.859375 34.863281 56.753906 35.039062 56.679688 C 35.214844 56.609375 35.394531 56.574219 35.589844 56.574219 L 37.679688 56.574219 C 37.871094 56.574219 38.050781 56.609375 38.226562 56.679688 C 38.402344 56.753906 38.558594 56.855469 38.691406 56.996094 C 38.824219 57.132812 38.929688 57.285156 39.003906 57.460938 C 39.074219 57.636719 39.113281 57.820312 39.113281 58.015625 L 39.113281 60.117188 C 39.113281 60.308594 39.074219 60.492188 39.003906 60.671875 C 38.929688 60.847656 38.828125 61.003906 38.691406 61.136719 C 38.554688 61.273438 38.402344 61.375 38.226562 61.449219 C 38.050781 61.523438 37.871094 61.558594 37.679688 61.558594 Z M 37.679688 61.558594 " fill-opacity="1" fill-rule="nonzero"/><path fill="#ff3333" d="M 49.246094 56.726562 L 47.429688 57.777344 C 47.269531 57.875 47.089844 57.9375 46.902344 57.957031 C 46.714844 57.984375 46.527344 57.972656 46.347656 57.921875 C 46.164062 57.867188 45.996094 57.789062 45.847656 57.675781 C 45.695312 57.558594 45.574219 57.417969 45.480469 57.253906 L 44.433594 55.429688 C 44.339844 55.265625 44.277344 55.085938 44.253906 54.894531 C 44.226562 54.707031 44.242188 54.523438 44.292969 54.335938 C 44.339844 54.152344 44.421875 53.984375 44.535156 53.832031 C 44.652344 53.679688 44.792969 53.558594 44.957031 53.460938 L 46.769531 52.40625 C 46.933594 52.3125 47.113281 52.25 47.296875 52.226562 C 47.488281 52.203125 47.671875 52.214844 47.855469 52.265625 C 48.035156 52.3125 48.203125 52.398438 48.351562 52.515625 C 48.503906 52.632812 48.625 52.773438 48.722656 52.9375 L 49.769531 54.761719 C 49.863281 54.925781 49.925781 55.105469 49.945312 55.292969 C 49.96875 55.476562 49.957031 55.664062 49.910156 55.851562 C 49.863281 56.039062 49.78125 56.203125 49.664062 56.355469 C 49.550781 56.503906 49.410156 56.628906 49.246094 56.726562 Z M 49.246094 56.726562 " fill-opacity="1" fill-rule="nonzero"/><path fill="#ff3333" d="M 56.859375 46.738281 L 55.8125 48.558594 C 55.71875 48.726562 55.589844 48.867188 55.441406 48.984375 C 55.292969 49.097656 55.128906 49.179688 54.945312 49.230469 C 54.761719 49.277344 54.578125 49.289062 54.386719 49.265625 C 54.199219 49.238281 54.023438 49.183594 53.855469 49.085938 L 52.042969 48.035156 C 51.878906 47.941406 51.738281 47.8125 51.621094 47.664062 C 51.507812 47.511719 51.425781 47.34375 51.378906 47.160156 C 51.328125 46.976562 51.316406 46.789062 51.339844 46.597656 C 51.367188 46.414062 51.421875 46.234375 51.519531 46.070312 L 52.566406 44.246094 C 52.660156 44.082031 52.785156 43.945312 52.933594 43.824219 C 53.085938 43.707031 53.253906 43.625 53.4375 43.574219 C 53.617188 43.523438 53.804688 43.515625 53.992188 43.535156 C 54.183594 43.558594 54.359375 43.621094 54.519531 43.714844 L 56.335938 44.769531 C 56.5 44.863281 56.640625 44.988281 56.753906 45.140625 C 56.871094 45.292969 56.953125 45.460938 57.003906 45.644531 C 57.054688 45.824219 57.0625 46.011719 57.039062 46.203125 C 57.015625 46.394531 56.957031 46.570312 56.863281 46.738281 Z M 56.859375 46.738281 " fill-opacity="1" fill-rule="nonzero"/><path fill="#ff3333" d="M 58.480469 34.25 L 58.480469 36.351562 C 58.480469 36.542969 58.441406 36.726562 58.367188 36.90625 C 58.296875 37.082031 58.191406 37.238281 58.058594 37.371094 C 57.925781 37.507812 57.769531 37.613281 57.59375 37.6875 C 57.417969 37.757812 57.238281 37.796875 57.046875 37.796875 L 54.953125 37.796875 C 54.761719 37.796875 54.582031 37.757812 54.40625 37.6875 C 54.230469 37.613281 54.074219 37.511719 53.941406 37.371094 C 53.808594 37.234375 53.703125 37.082031 53.628906 36.90625 C 53.558594 36.730469 53.523438 36.546875 53.523438 36.351562 L 53.523438 34.25 C 53.523438 34.058594 53.558594 33.875 53.628906 33.699219 C 53.703125 33.527344 53.804688 33.367188 53.941406 33.234375 C 54.078125 33.101562 54.230469 32.996094 54.40625 32.921875 C 54.582031 32.847656 54.761719 32.8125 54.953125 32.8125 L 57.046875 32.8125 C 57.238281 32.8125 57.417969 32.847656 57.59375 32.921875 C 57.769531 32.996094 57.925781 33.097656 58.058594 33.234375 C 58.191406 33.367188 58.296875 33.527344 58.367188 33.699219 C 58.441406 33.875 58.480469 34.058594 58.480469 34.25 Z M 58.480469 34.25 " fill-opacity="1" fill-rule="nonzero"/><path fill="#ff3333" d="M 48.199219 39.398438 C 47.238281 46.449219 41.015625 51.632812 33.929688 51.316406 C 25.996094 50.953125 20.027344 44.105469 20.722656 36.242188 C 20.722656 36.039062 20.765625 35.832031 20.789062 35.632812 C 21.4375 38.71875 23.324219 41.554688 26.257812 42.886719 C 29.597656 44.394531 34.519531 43.855469 37.175781 40.054688 C 39.554688 36.65625 37.875 31.617188 34.4375 30.988281 C 33.261719 30.777344 32.0625 31.101562 31.546875 31.734375 C 32.441406 31.890625 35.074219 33.839844 33.765625 37.1875 C 32.378906 40.722656 26.3125 41.117188 24.167969 36.53125 C 21.878906 31.640625 24.625 27.160156 28.011719 25.214844 C 29.480469 24.371094 31.257812 23.847656 32.867188 23.65625 C 33.824219 23.539062 34.828125 23.539062 35.738281 23.621094 C 43.558594 24.339844 49.273438 31.460938 48.199219 39.371094 Z M 48.199219 39.398438 " fill-opacity="1" fill-rule="nonzero"/></svg>