<svg xmlns="http://www.w3.org/2000/svg" xmlns:xlink="http://www.w3.org/1999/xlink" width="1080" zoomAndPan="magnify" viewBox="0 0 810 809.999993" height="1080" preserveAspectRatio="xMidYMid meet" version="1.0"><defs><clipPath id="18571e24c4"><path d="M 329 14.679688 L 411 14.679688 L 411 96 L 329 96 Z M 329 14.679688 " clip-rule="nonzero"/></clipPath><clipPath id="1f60007e34"><path d="M 14.679688 399 L 96 399 L 96 481 L 14.679688 481 Z M 14.679688 399 " clip-rule="nonzero"/></clipPath><clipPath id="ad592dba4f"><path d="M 399 714 L 481 714 L 481 795.429688 L 399 795.429688 Z M 399 714 " clip-rule="nonzero"/></clipPath><clipPath id="c43639e8e9"><path d="M 714 329 L 795.429688 329 L 795.429688 411 L 714 411 Z M 714 329 " clip-rule="nonzero"/></clipPath></defs><path fill="#ff3333" d="M 628.035156 435.90625 C 612.34375 550.308594 510.640625 635.078125 395.289062 629.933594 C 266.144531 624.203125 169.257812 512.0625 180.753906 384.742188 C 181.046875 381.460938 181.410156 378.210938 181.847656 375 C 192.433594 425.066406 225.421875 466.265625 271 492.648438 C 322.488281 522.5 405.179688 506.335938 442.765625 442.800781 C 476.191406 386.277344 451.195312 310.335938 404.046875 300.121094 C 384.960938 295.996094 370.914062 303.257812 356.9375 312.089844 C 371.425781 314.570312 409.996094 349.308594 392.917969 400.542969 C 375.984375 451.304688 285.886719 475.863281 236.84375 389.78125 C 214.398438 350.40625 215.605469 277.75 251.511719 240.234375 C 296.6875 198.160156 358.90625 174.734375 425.25 180.71875 C 552.640625 192.210938 645.625 307.710938 628.035156 435.867188 Z M 628.035156 435.90625 " fill-opacity="1" fill-rule="nonzero"/><path fill="#ff3333" d="M 717.125 164.972656 L 734.167969 194.492188 C 734.546875 195.152344 734.894531 195.828125 735.210938 196.523438 C 735.523438 197.21875 735.804688 197.925781 736.050781 198.648438 C 736.296875 199.371094 736.503906 200.101562 736.675781 200.84375 C 736.851562 201.585938 736.988281 202.335938 737.085938 203.09375 C 737.1875 203.847656 737.25 204.609375 737.273438 205.371094 C 737.296875 206.132812 737.285156 206.894531 737.234375 207.652344 C 737.1875 208.414062 737.097656 209.171875 736.976562 209.925781 C 736.851562 210.675781 736.691406 211.421875 736.492188 212.15625 C 736.296875 212.894531 736.0625 213.617188 735.792969 214.332031 C 735.523438 215.046875 735.222656 215.746094 734.882812 216.429688 C 734.546875 217.113281 734.175781 217.777344 733.773438 218.425781 C 733.371094 219.074219 732.9375 219.699219 732.476562 220.304688 C 732.011719 220.910156 731.519531 221.488281 730.996094 222.046875 C 730.476562 222.601562 729.929688 223.132812 729.355469 223.636719 C 728.78125 224.136719 728.183594 224.613281 727.566406 225.054688 C 726.945312 225.5 726.304688 225.914062 725.644531 226.292969 L 696.128906 243.335938 C 695.46875 243.71875 694.789062 244.066406 694.09375 244.378906 C 693.402344 244.695312 692.691406 244.972656 691.96875 245.21875 C 691.25 245.464844 690.515625 245.671875 689.773438 245.847656 C 689.03125 246.019531 688.28125 246.15625 687.527344 246.253906 C 686.769531 246.355469 686.011719 246.417969 685.25 246.441406 C 684.488281 246.46875 683.726562 246.453125 682.964844 246.40625 C 682.203125 246.355469 681.445312 246.269531 680.695312 246.144531 C 679.941406 246.019531 679.199219 245.859375 678.460938 245.660156 C 677.726562 245.464844 677 245.230469 676.285156 244.960938 C 675.574219 244.695312 674.875 244.390625 674.191406 244.054688 C 673.503906 243.714844 672.839844 243.347656 672.191406 242.945312 C 671.546875 242.542969 670.917969 242.109375 670.3125 241.644531 C 669.707031 241.179688 669.128906 240.6875 668.570312 240.164062 C 668.015625 239.644531 667.484375 239.097656 666.984375 238.523438 C 666.480469 237.949219 666.007812 237.355469 665.5625 236.734375 C 665.117188 236.113281 664.707031 235.472656 664.324219 234.8125 L 647.28125 205.296875 C 646.902344 204.636719 646.554688 203.960938 646.238281 203.265625 C 645.925781 202.570312 645.644531 201.863281 645.398438 201.140625 C 645.152344 200.417969 644.945312 199.6875 644.773438 198.941406 C 644.597656 198.199219 644.460938 197.449219 644.363281 196.695312 C 644.261719 195.9375 644.199219 195.179688 644.175781 194.417969 C 644.152344 193.65625 644.164062 192.894531 644.214844 192.132812 C 644.261719 191.371094 644.351562 190.617188 644.472656 189.863281 C 644.597656 189.113281 644.757812 188.367188 644.957031 187.628906 C 645.152344 186.894531 645.386719 186.167969 645.65625 185.457031 C 645.925781 184.742188 646.226562 184.042969 646.5625 183.359375 C 646.902344 182.675781 647.273438 182.007812 647.675781 181.363281 C 648.078125 180.714844 648.511719 180.089844 648.972656 179.484375 C 649.4375 178.878906 649.929688 178.296875 650.453125 177.742188 C 650.972656 177.183594 651.519531 176.65625 652.09375 176.152344 C 652.667969 175.648438 653.265625 175.175781 653.882812 174.730469 C 654.503906 174.289062 655.144531 173.875 655.804688 173.492188 L 685.320312 156.453125 C 685.980469 156.070312 686.660156 155.722656 687.355469 155.40625 C 688.046875 155.09375 688.757812 154.8125 689.480469 154.566406 C 690.199219 154.324219 690.933594 154.113281 691.675781 153.941406 C 692.417969 153.769531 693.167969 153.632812 693.921875 153.53125 C 694.679688 153.433594 695.4375 153.371094 696.199219 153.34375 C 696.960938 153.320312 697.722656 153.332031 698.484375 153.382812 C 699.246094 153.433594 700.003906 153.519531 700.753906 153.644531 C 701.507812 153.769531 702.25 153.929688 702.988281 154.125 C 703.726562 154.324219 704.449219 154.554688 705.164062 154.824219 C 705.875 155.09375 706.574219 155.394531 707.257812 155.734375 C 707.945312 156.070312 708.609375 156.441406 709.257812 156.84375 C 709.902344 157.246094 710.53125 157.679688 711.136719 158.144531 C 711.742188 158.609375 712.320312 159.101562 712.878906 159.621094 C 713.433594 160.144531 713.964844 160.691406 714.464844 161.265625 C 714.96875 161.835938 715.441406 162.433594 715.886719 163.054688 C 716.332031 163.671875 716.742188 164.3125 717.125 164.972656 Z M 717.125 164.972656 " fill-opacity="1" fill-rule="nonzero"/><path fill="#ff3333" d="M 555.277344 41.066406 L 584.792969 58.109375 C 585.453125 58.492188 586.09375 58.902344 586.714844 59.347656 C 587.332031 59.792969 587.929688 60.265625 588.503906 60.769531 C 589.078125 61.269531 589.625 61.800781 590.144531 62.355469 C 590.667969 62.914062 591.160156 63.496094 591.625 64.097656 C 592.089844 64.703125 592.519531 65.332031 592.925781 65.976562 C 593.328125 66.625 593.695312 67.292969 594.035156 67.976562 C 594.371094 68.660156 594.675781 69.359375 594.941406 70.070312 C 595.210938 70.785156 595.445312 71.511719 595.640625 72.246094 C 595.839844 72.984375 596 73.726562 596.125 74.480469 C 596.25 75.230469 596.335938 75.988281 596.386719 76.75 C 596.433594 77.511719 596.449219 78.273438 596.421875 79.035156 C 596.398438 79.796875 596.335938 80.554688 596.234375 81.3125 C 596.136719 82.066406 596 82.816406 595.828125 83.558594 C 595.652344 84.300781 595.445312 85.035156 595.199219 85.757812 C 594.953125 86.476562 594.675781 87.1875 594.359375 87.878906 C 594.046875 88.574219 593.695312 89.253906 593.316406 89.914062 L 576.273438 119.429688 C 575.894531 120.089844 575.480469 120.730469 575.035156 121.351562 C 574.589844 121.96875 574.117188 122.566406 573.617188 123.140625 C 573.113281 123.714844 572.582031 124.261719 572.027344 124.78125 C 571.46875 125.304688 570.890625 125.796875 570.285156 126.261719 C 569.679688 126.722656 569.054688 127.15625 568.40625 127.558594 C 567.757812 127.960938 567.09375 128.332031 566.410156 128.671875 C 565.726562 129.007812 565.027344 129.308594 564.3125 129.578125 C 563.597656 129.847656 562.875 130.082031 562.136719 130.277344 C 561.402344 130.476562 560.65625 130.636719 559.902344 130.761719 C 559.152344 130.882812 558.394531 130.972656 557.632812 131.019531 C 556.875 131.070312 556.113281 131.082031 555.347656 131.058594 C 554.585938 131.035156 553.828125 130.972656 553.074219 130.871094 C 552.316406 130.773438 551.566406 130.636719 550.824219 130.460938 C 550.082031 130.289062 549.351562 130.082031 548.628906 129.835938 C 547.90625 129.589844 547.199219 129.308594 546.503906 128.996094 C 545.808594 128.679688 545.132812 128.332031 544.46875 127.953125 L 514.953125 110.910156 C 514.292969 110.527344 513.652344 110.117188 513.035156 109.671875 C 512.414062 109.226562 511.816406 108.753906 511.242188 108.25 C 510.671875 107.75 510.125 107.21875 509.601562 106.664062 C 509.082031 106.105469 508.585938 105.527344 508.125 104.921875 C 507.660156 104.316406 507.226562 103.6875 506.824219 103.042969 C 506.421875 102.394531 506.050781 101.730469 505.714844 101.042969 C 505.375 100.359375 505.074219 99.664062 504.804688 98.949219 C 504.535156 98.234375 504.304688 97.511719 504.105469 96.773438 C 503.910156 96.035156 503.746094 95.292969 503.625 94.539062 C 503.5 93.789062 503.414062 93.03125 503.363281 92.269531 C 503.3125 91.507812 503.300781 90.746094 503.324219 89.984375 C 503.351562 89.222656 503.414062 88.464844 503.511719 87.707031 C 503.609375 86.953125 503.746094 86.203125 503.921875 85.460938 C 504.09375 84.71875 504.304688 83.984375 504.546875 83.265625 C 504.792969 82.542969 505.074219 81.832031 505.386719 81.140625 C 505.703125 80.445312 506.050781 79.765625 506.433594 79.105469 L 523.472656 49.589844 C 523.855469 48.929688 524.265625 48.289062 524.710938 47.667969 C 525.15625 47.050781 525.628906 46.453125 526.132812 45.878906 C 526.632812 45.304688 527.164062 44.757812 527.722656 44.238281 C 528.277344 43.714844 528.859375 43.222656 529.464844 42.761719 C 530.066406 42.296875 530.695312 41.863281 531.339844 41.460938 C 531.988281 41.058594 532.65625 40.6875 533.339844 40.351562 C 534.023438 40.011719 534.722656 39.710938 535.433594 39.441406 C 536.148438 39.171875 536.875 38.9375 537.609375 38.742188 C 538.347656 38.542969 539.089844 38.382812 539.84375 38.257812 C 540.597656 38.136719 541.351562 38.046875 542.113281 38 C 542.875 37.949219 543.636719 37.9375 544.398438 37.960938 C 545.160156 37.984375 545.917969 38.046875 546.675781 38.148438 C 547.429688 38.246094 548.179688 38.382812 548.921875 38.558594 C 549.664062 38.730469 550.398438 38.9375 551.121094 39.183594 C 551.839844 39.429688 552.550781 39.710938 553.246094 40.023438 C 553.9375 40.339844 554.617188 40.6875 555.277344 41.066406 Z M 555.277344 41.066406 " fill-opacity="1" fill-rule="nonzero"/><g clip-path="url(#18571e24c4)"><path fill="#ff3333" d="M 353.179688 14.679688 L 387.261719 14.679688 C 388.023438 14.679688 388.785156 14.71875 389.542969 14.792969 C 390.300781 14.867188 391.054688 14.980469 391.804688 15.128906 C 392.550781 15.277344 393.289062 15.460938 394.019531 15.683594 C 394.75 15.902344 395.464844 16.160156 396.171875 16.453125 C 396.875 16.746094 397.5625 17.070312 398.238281 17.429688 C 398.910156 17.789062 399.5625 18.179688 400.195312 18.605469 C 400.832031 19.027344 401.441406 19.480469 402.03125 19.964844 C 402.621094 20.449219 403.183594 20.960938 403.722656 21.5 C 404.261719 22.039062 404.773438 22.601562 405.257812 23.191406 C 405.742188 23.78125 406.195312 24.394531 406.621094 25.027344 C 407.042969 25.660156 407.433594 26.316406 407.792969 26.988281 C 408.152344 27.660156 408.480469 28.347656 408.769531 29.050781 C 409.0625 29.757812 409.320312 30.472656 409.539062 31.203125 C 409.761719 31.933594 409.945312 32.671875 410.097656 33.417969 C 410.246094 34.167969 410.355469 34.921875 410.429688 35.679688 C 410.507812 36.4375 410.542969 37.199219 410.542969 37.960938 L 410.542969 72.046875 C 410.542969 72.808594 410.507812 73.570312 410.429688 74.328125 C 410.355469 75.085938 410.246094 75.839844 410.097656 76.585938 C 409.945312 77.335938 409.761719 78.074219 409.539062 78.804688 C 409.320312 79.535156 409.0625 80.25 408.769531 80.953125 C 408.480469 81.660156 408.152344 82.347656 407.792969 83.019531 C 407.433594 83.691406 407.042969 84.347656 406.621094 84.980469 C 406.195312 85.613281 405.742188 86.226562 405.257812 86.816406 C 404.773438 87.40625 404.261719 87.96875 403.722656 88.507812 C 403.183594 89.046875 402.621094 89.558594 402.03125 90.042969 C 401.441406 90.527344 400.832031 90.980469 400.195312 91.402344 C 399.5625 91.828125 398.910156 92.21875 398.238281 92.578125 C 397.5625 92.9375 396.875 93.261719 396.171875 93.554688 C 395.464844 93.847656 394.75 94.101562 394.019531 94.324219 C 393.289062 94.546875 392.550781 94.730469 391.804688 94.878906 C 391.054688 95.027344 390.300781 95.140625 389.542969 95.214844 C 388.785156 95.289062 388.023438 95.328125 387.261719 95.328125 L 353.179688 95.328125 C 352.414062 95.328125 351.65625 95.289062 350.894531 95.214844 C 350.136719 95.140625 349.382812 95.027344 348.636719 94.878906 C 347.886719 94.730469 347.148438 94.546875 346.417969 94.324219 C 345.691406 94.101562 344.972656 93.847656 344.269531 93.554688 C 343.5625 93.261719 342.875 92.9375 342.203125 92.578125 C 341.53125 92.21875 340.878906 91.828125 340.242188 91.402344 C 339.609375 90.980469 338.996094 90.527344 338.410156 90.042969 C 337.820312 89.558594 337.253906 89.046875 336.714844 88.507812 C 336.175781 87.96875 335.664062 87.40625 335.179688 86.816406 C 334.699219 86.226562 334.242188 85.613281 333.820312 84.980469 C 333.394531 84.347656 333.003906 83.691406 332.644531 83.019531 C 332.285156 82.347656 331.960938 81.660156 331.667969 80.953125 C 331.375 80.25 331.121094 79.535156 330.898438 78.804688 C 330.675781 78.074219 330.492188 77.335938 330.34375 76.585938 C 330.195312 75.839844 330.082031 75.085938 330.007812 74.328125 C 329.933594 73.570312 329.894531 72.808594 329.894531 72.046875 L 329.894531 37.960938 C 329.894531 37.199219 329.933594 36.4375 330.007812 35.679688 C 330.082031 34.921875 330.195312 34.167969 330.34375 33.417969 C 330.492188 32.671875 330.675781 31.933594 330.898438 31.203125 C 331.121094 30.472656 331.375 29.757812 331.667969 29.050781 C 331.960938 28.347656 332.285156 27.660156 332.644531 26.988281 C 333.003906 26.316406 333.394531 25.660156 333.820312 25.027344 C 334.242188 24.394531 334.699219 23.78125 335.179688 23.191406 C 335.664062 22.601562 336.175781 22.039062 336.714844 21.5 C 337.253906 20.960938 337.820312 20.449219 338.410156 19.964844 C 338.996094 19.480469 339.609375 19.027344 340.242188 18.605469 C 340.878906 18.179688 341.53125 17.789062 342.203125 17.429688 C 342.875 17.070312 343.5625 16.746094 344.269531 16.453125 C 344.972656 16.160156 345.691406 15.902344 346.417969 15.683594 C 347.148438 15.460938 347.886719 15.277344 348.636719 15.128906 C 349.382812 14.980469 350.136719 14.867188 350.894531 14.792969 C 351.65625 14.71875 352.414062 14.679688 353.179688 14.679688 Z M 353.179688 14.679688 " fill-opacity="1" fill-rule="nonzero"/></g><path fill="#ff3333" d="M 164.957031 92.882812 L 194.476562 75.84375 C 195.136719 75.460938 195.8125 75.113281 196.507812 74.800781 C 197.203125 74.484375 197.910156 74.203125 198.632812 73.960938 C 199.355469 73.714844 200.085938 73.503906 200.828125 73.332031 C 201.574219 73.160156 202.320312 73.023438 203.078125 72.921875 C 203.832031 72.824219 204.59375 72.761719 205.355469 72.738281 C 206.117188 72.710938 206.878906 72.722656 207.640625 72.773438 C 208.398438 72.824219 209.15625 72.910156 209.910156 73.035156 C 210.660156 73.160156 211.40625 73.320312 212.140625 73.515625 C 212.878906 73.714844 213.605469 73.949219 214.316406 74.214844 C 215.03125 74.484375 215.730469 74.789062 216.414062 75.125 C 217.097656 75.460938 217.761719 75.832031 218.410156 76.234375 C 219.058594 76.636719 219.683594 77.070312 220.289062 77.535156 C 220.894531 78 221.476562 78.492188 222.03125 79.011719 C 222.589844 79.535156 223.117188 80.082031 223.621094 80.65625 C 224.125 81.226562 224.597656 81.824219 225.042969 82.445312 C 225.484375 83.0625 225.898438 83.703125 226.277344 84.363281 L 243.320312 113.882812 C 243.703125 114.542969 244.050781 115.21875 244.363281 115.914062 C 244.679688 116.609375 244.960938 117.316406 245.203125 118.039062 C 245.449219 118.761719 245.660156 119.492188 245.832031 120.234375 C 246.003906 120.980469 246.140625 121.726562 246.242188 122.484375 C 246.339844 123.238281 246.402344 124 246.425781 124.761719 C 246.453125 125.523438 246.441406 126.285156 246.390625 127.046875 C 246.339844 127.804688 246.253906 128.5625 246.128906 129.316406 C 246.003906 130.066406 245.84375 130.8125 245.648438 131.546875 C 245.449219 132.285156 245.214844 133.011719 244.949219 133.722656 C 244.679688 134.4375 244.375 135.136719 244.039062 135.820312 C 243.703125 136.503906 243.332031 137.167969 242.929688 137.816406 C 242.527344 138.464844 242.09375 139.089844 241.628906 139.695312 C 241.164062 140.300781 240.671875 140.882812 240.152344 141.4375 C 239.628906 141.996094 239.082031 142.523438 238.507812 143.027344 C 237.9375 143.53125 237.339844 144.003906 236.71875 144.445312 C 236.101562 144.890625 235.460938 145.304688 234.800781 145.683594 L 205.28125 162.726562 C 204.621094 163.109375 203.945312 163.457031 203.25 163.769531 C 202.554688 164.085938 201.847656 164.367188 201.125 164.609375 C 200.402344 164.855469 199.671875 165.066406 198.929688 165.238281 C 198.183594 165.410156 197.4375 165.546875 196.679688 165.648438 C 195.925781 165.746094 195.164062 165.808594 194.402344 165.832031 C 193.640625 165.859375 192.878906 165.847656 192.117188 165.796875 C 191.359375 165.746094 190.601562 165.660156 189.847656 165.535156 C 189.097656 165.410156 188.351562 165.25 187.617188 165.054688 C 186.878906 164.855469 186.152344 164.621094 185.441406 164.355469 C 184.726562 164.085938 184.027344 163.78125 183.34375 163.445312 C 182.660156 163.109375 181.996094 162.738281 181.347656 162.335938 C 180.699219 161.933594 180.074219 161.5 179.46875 161.035156 C 178.863281 160.570312 178.28125 160.078125 177.726562 159.558594 C 177.167969 159.035156 176.640625 158.488281 176.136719 157.914062 C 175.632812 157.34375 175.160156 156.746094 174.714844 156.125 C 174.273438 155.503906 173.859375 154.867188 173.480469 154.207031 L 156.4375 124.6875 C 156.054688 124.027344 155.707031 123.351562 155.394531 122.65625 C 155.078125 121.960938 154.796875 121.253906 154.554688 120.53125 C 154.308594 119.808594 154.097656 119.078125 153.925781 118.335938 C 153.753906 117.589844 153.617188 116.84375 153.515625 116.085938 C 153.417969 115.332031 153.355469 114.570312 153.332031 113.808594 C 153.304688 113.046875 153.316406 112.285156 153.367188 111.523438 C 153.417969 110.765625 153.503906 110.007812 153.628906 109.253906 C 153.753906 108.503906 153.914062 107.757812 154.109375 107.023438 C 154.308594 106.285156 154.542969 105.558594 154.808594 104.847656 C 155.078125 104.132812 155.382812 103.433594 155.71875 102.75 C 156.054688 102.066406 156.425781 101.402344 156.828125 100.753906 C 157.230469 100.105469 157.664062 99.480469 158.128906 98.875 C 158.59375 98.269531 159.085938 97.6875 159.605469 97.132812 C 160.128906 96.574219 160.675781 96.046875 161.25 95.542969 C 161.820312 95.039062 162.417969 94.566406 163.039062 94.121094 C 163.660156 93.679688 164.296875 93.265625 164.957031 92.882812 Z M 164.957031 92.882812 " fill-opacity="1" fill-rule="nonzero"/><path fill="#ff3333" d="M 41.078125 254.699219 L 58.121094 225.183594 C 58.503906 224.523438 58.914062 223.882812 59.359375 223.261719 C 59.804688 222.644531 60.277344 222.046875 60.78125 221.472656 C 61.28125 220.898438 61.8125 220.351562 62.367188 219.832031 C 62.925781 219.308594 63.503906 218.816406 64.109375 218.351562 C 64.714844 217.890625 65.339844 217.457031 65.988281 217.054688 C 66.636719 216.648438 67.300781 216.28125 67.988281 215.941406 C 68.671875 215.605469 69.367188 215.304688 70.082031 215.035156 C 70.796875 214.765625 71.519531 214.53125 72.257812 214.335938 C 72.996094 214.136719 73.738281 213.976562 74.492188 213.851562 C 75.242188 213.730469 76 213.640625 76.761719 213.59375 C 77.523438 213.542969 78.285156 213.53125 79.046875 213.554688 C 79.808594 213.578125 80.566406 213.640625 81.324219 213.742188 C 82.078125 213.839844 82.828125 213.976562 83.570312 214.148438 C 84.3125 214.324219 85.046875 214.53125 85.765625 214.777344 C 86.488281 215.023438 87.199219 215.300781 87.890625 215.617188 C 88.585938 215.933594 89.265625 216.28125 89.925781 216.660156 L 119.441406 233.703125 C 120.101562 234.085938 120.742188 234.496094 121.363281 234.941406 C 121.980469 235.386719 122.578125 235.859375 123.152344 236.363281 C 123.726562 236.863281 124.273438 237.394531 124.792969 237.949219 C 125.316406 238.507812 125.808594 239.085938 126.269531 239.691406 C 126.734375 240.296875 127.167969 240.921875 127.570312 241.570312 C 127.972656 242.21875 128.34375 242.882812 128.679688 243.566406 C 129.019531 244.253906 129.320312 244.949219 129.589844 245.664062 C 129.859375 246.378906 130.09375 247.101562 130.289062 247.839844 C 130.488281 248.578125 130.648438 249.320312 130.773438 250.074219 C 130.894531 250.824219 130.984375 251.582031 131.03125 252.34375 C 131.082031 253.105469 131.09375 253.863281 131.070312 254.628906 C 131.046875 255.390625 130.984375 256.148438 130.882812 256.90625 C 130.785156 257.660156 130.648438 258.410156 130.472656 259.152344 C 130.300781 259.894531 130.09375 260.628906 129.847656 261.347656 C 129.601562 262.070312 129.320312 262.78125 129.007812 263.472656 C 128.691406 264.167969 128.34375 264.847656 127.964844 265.507812 L 110.921875 295.023438 C 110.539062 295.683594 110.128906 296.324219 109.683594 296.945312 C 109.238281 297.5625 108.765625 298.160156 108.261719 298.734375 C 107.761719 299.304688 107.230469 299.855469 106.675781 300.375 C 106.117188 300.894531 105.535156 301.390625 104.933594 301.851562 C 104.328125 302.316406 103.699219 302.75 103.054688 303.152344 C 102.40625 303.554688 101.738281 303.925781 101.054688 304.261719 C 100.371094 304.601562 99.671875 304.902344 98.960938 305.171875 C 98.246094 305.441406 97.519531 305.671875 96.785156 305.871094 C 96.046875 306.070312 95.304688 306.230469 94.550781 306.351562 C 93.800781 306.476562 93.042969 306.566406 92.28125 306.613281 C 91.519531 306.664062 90.757812 306.675781 89.996094 306.652344 C 89.234375 306.625 88.476562 306.566406 87.71875 306.464844 C 86.964844 306.367188 86.214844 306.230469 85.472656 306.054688 C 84.730469 305.882812 83.996094 305.675781 83.273438 305.429688 C 82.554688 305.183594 81.84375 304.902344 81.152344 304.589844 C 80.457031 304.273438 79.777344 303.925781 79.117188 303.546875 L 49.601562 286.503906 C 48.941406 286.121094 48.300781 285.710938 47.679688 285.265625 C 47.0625 284.820312 46.464844 284.347656 45.890625 283.84375 C 45.316406 283.34375 44.769531 282.8125 44.25 282.257812 C 43.726562 281.699219 43.234375 281.117188 42.769531 280.515625 C 42.308594 279.910156 41.875 279.28125 41.472656 278.636719 C 41.070312 277.988281 40.699219 277.320312 40.359375 276.636719 C 40.023438 275.953125 39.722656 275.253906 39.453125 274.542969 C 39.183594 273.828125 38.949219 273.101562 38.753906 272.367188 C 38.554688 271.628906 38.394531 270.886719 38.269531 270.132812 C 38.148438 269.382812 38.058594 268.625 38.011719 267.863281 C 37.960938 267.101562 37.949219 266.339844 37.972656 265.578125 C 37.996094 264.816406 38.058594 264.058594 38.160156 263.300781 C 38.257812 262.546875 38.394531 261.796875 38.570312 261.054688 C 38.742188 260.3125 38.949219 259.578125 39.195312 258.855469 C 39.441406 258.136719 39.722656 257.425781 40.035156 256.730469 C 40.351562 256.039062 40.699219 255.359375 41.078125 254.699219 Z M 41.078125 254.699219 " fill-opacity="1" fill-rule="nonzero"/><g clip-path="url(#1f60007e34)"><path fill="#ff3333" d="M 14.679688 456.816406 L 14.679688 422.730469 C 14.679688 421.96875 14.71875 421.207031 14.792969 420.449219 C 14.867188 419.691406 14.980469 418.9375 15.128906 418.191406 C 15.277344 417.441406 15.460938 416.703125 15.683594 415.972656 C 15.902344 415.242188 16.160156 414.527344 16.453125 413.820312 C 16.746094 413.117188 17.070312 412.429688 17.429688 411.757812 C 17.789062 411.085938 18.179688 410.429688 18.605469 409.796875 C 19.027344 409.164062 19.480469 408.550781 19.964844 407.960938 C 20.449219 407.371094 20.960938 406.808594 21.5 406.269531 C 22.039062 405.730469 22.601562 405.21875 23.191406 404.734375 C 23.78125 404.25 24.394531 403.796875 25.027344 403.375 C 25.660156 402.949219 26.316406 402.558594 26.988281 402.199219 C 27.660156 401.839844 28.347656 401.515625 29.050781 401.222656 C 29.757812 400.929688 30.472656 400.671875 31.203125 400.453125 C 31.933594 400.230469 32.671875 400.046875 33.417969 399.898438 C 34.167969 399.75 34.921875 399.636719 35.679688 399.5625 C 36.4375 399.488281 37.199219 399.449219 37.960938 399.449219 L 72.046875 399.449219 C 72.808594 399.449219 73.570312 399.488281 74.328125 399.5625 C 75.085938 399.636719 75.839844 399.75 76.585938 399.898438 C 77.335938 400.046875 78.074219 400.230469 78.804688 400.453125 C 79.535156 400.671875 80.25 400.929688 80.953125 401.222656 C 81.660156 401.515625 82.347656 401.839844 83.019531 402.199219 C 83.691406 402.558594 84.347656 402.949219 84.980469 403.375 C 85.613281 403.796875 86.226562 404.25 86.816406 404.734375 C 87.40625 405.21875 87.96875 405.730469 88.507812 406.269531 C 89.046875 406.808594 89.558594 407.371094 90.042969 407.960938 C 90.527344 408.550781 90.980469 409.164062 91.402344 409.796875 C 91.828125 410.429688 92.21875 411.085938 92.578125 411.757812 C 92.9375 412.429688 93.261719 413.117188 93.554688 413.820312 C 93.847656 414.527344 94.101562 415.242188 94.324219 415.972656 C 94.546875 416.703125 94.730469 417.441406 94.878906 418.191406 C 95.027344 418.9375 95.140625 419.691406 95.214844 420.449219 C 95.289062 421.207031 95.328125 421.96875 95.328125 422.730469 L 95.328125 456.816406 C 95.328125 457.578125 95.289062 458.339844 95.214844 459.097656 C 95.140625 459.855469 95.027344 460.609375 94.878906 461.355469 C 94.730469 462.105469 94.546875 462.84375 94.324219 463.574219 C 94.101562 464.304688 93.847656 465.019531 93.554688 465.722656 C 93.261719 466.429688 92.9375 467.117188 92.578125 467.789062 C 92.21875 468.460938 91.828125 469.117188 91.402344 469.75 C 90.980469 470.382812 90.527344 470.996094 90.042969 471.585938 C 89.558594 472.175781 89.046875 472.738281 88.507812 473.277344 C 87.96875 473.816406 87.40625 474.328125 86.816406 474.8125 C 86.226562 475.296875 85.613281 475.75 84.980469 476.171875 C 84.347656 476.597656 83.691406 476.988281 83.019531 477.347656 C 82.347656 477.707031 81.660156 478.03125 80.953125 478.324219 C 80.25 478.617188 79.535156 478.871094 78.804688 479.09375 C 78.074219 479.316406 77.335938 479.5 76.585938 479.648438 C 75.839844 479.796875 75.085938 479.910156 74.328125 479.984375 C 73.570312 480.058594 72.808594 480.097656 72.046875 480.097656 L 37.960938 480.097656 C 37.199219 480.097656 36.4375 480.058594 35.679688 479.984375 C 34.921875 479.910156 34.167969 479.796875 33.417969 479.648438 C 32.671875 479.5 31.933594 479.316406 31.203125 479.09375 C 30.472656 478.871094 29.757812 478.617188 29.050781 478.324219 C 28.347656 478.03125 27.660156 477.707031 26.988281 477.347656 C 26.316406 476.988281 25.660156 476.597656 25.027344 476.171875 C 24.394531 475.75 23.78125 475.296875 23.191406 474.8125 C 22.601562 474.328125 22.039062 473.816406 21.5 473.277344 C 20.960938 472.738281 20.449219 472.175781 19.964844 471.585938 C 19.480469 470.996094 19.027344 470.382812 18.605469 469.75 C 18.179688 469.117188 17.789062 468.460938 17.429688 467.789062 C 17.070312 467.117188 16.746094 466.429688 16.453125 465.722656 C 16.160156 465.019531 15.902344 464.304688 15.683594 463.574219 C 15.460938 462.84375 15.277344 462.105469 15.128906 461.355469 C 14.980469 460.609375 14.867188 459.855469 14.792969 459.097656 C 14.71875 458.339844 14.679688 457.578125 14.679688 456.816406 Z M 14.679688 456.816406 " fill-opacity="1" fill-rule="nonzero"/></g><path fill="#ff3333" d="M 92.898438 645.054688 L 75.859375 615.539062 C 75.476562 614.878906 75.128906 614.199219 74.8125 613.503906 C 74.5 612.808594 74.21875 612.101562 73.972656 611.378906 C 73.730469 610.65625 73.519531 609.925781 73.347656 609.183594 C 73.171875 608.441406 73.039062 607.691406 72.9375 606.933594 C 72.839844 606.179688 72.777344 605.421875 72.75 604.660156 C 72.726562 603.894531 72.738281 603.132812 72.789062 602.375 C 72.839844 601.613281 72.925781 600.855469 73.050781 600.105469 C 73.175781 599.351562 73.335938 598.605469 73.53125 597.871094 C 73.730469 597.132812 73.960938 596.410156 74.230469 595.695312 C 74.5 594.980469 74.800781 594.28125 75.140625 593.597656 C 75.476562 592.914062 75.847656 592.25 76.25 591.601562 C 76.652344 590.953125 77.085938 590.328125 77.550781 589.722656 C 78.015625 589.117188 78.507812 588.539062 79.027344 587.980469 C 79.550781 587.425781 80.097656 586.894531 80.667969 586.390625 C 81.242188 585.890625 81.839844 585.417969 82.460938 584.972656 C 83.078125 584.527344 83.71875 584.113281 84.378906 583.734375 L 113.898438 566.691406 C 114.558594 566.3125 115.234375 565.964844 115.929688 565.648438 C 116.625 565.332031 117.332031 565.054688 118.054688 564.808594 C 118.777344 564.5625 119.507812 564.355469 120.25 564.179688 C 120.992188 564.007812 121.742188 563.871094 122.5 563.773438 C 123.253906 563.671875 124.011719 563.609375 124.777344 563.585938 C 125.539062 563.5625 126.300781 563.574219 127.058594 563.621094 C 127.820312 563.671875 128.578125 563.761719 129.328125 563.882812 C 130.082031 564.007812 130.828125 564.167969 131.5625 564.367188 C 132.300781 564.5625 133.023438 564.796875 133.738281 565.066406 C 134.453125 565.332031 135.152344 565.636719 135.835938 565.972656 C 136.519531 566.3125 137.183594 566.679688 137.832031 567.082031 C 138.480469 567.488281 139.105469 567.921875 139.710938 568.382812 C 140.316406 568.847656 140.894531 569.339844 141.453125 569.863281 C 142.007812 570.382812 142.539062 570.929688 143.042969 571.503906 C 143.542969 572.078125 144.019531 572.675781 144.460938 573.292969 C 144.90625 573.914062 145.320312 574.554688 145.699219 575.214844 L 162.742188 604.730469 C 163.125 605.390625 163.472656 606.070312 163.785156 606.761719 C 164.101562 607.457031 164.378906 608.167969 164.625 608.886719 C 164.871094 609.609375 165.078125 610.34375 165.253906 611.085938 C 165.425781 611.828125 165.5625 612.578125 165.660156 613.332031 C 165.761719 614.089844 165.824219 614.847656 165.847656 615.609375 C 165.875 616.371094 165.859375 617.132812 165.8125 617.894531 C 165.761719 618.65625 165.675781 619.410156 165.550781 620.164062 C 165.425781 620.917969 165.265625 621.660156 165.066406 622.398438 C 164.871094 623.132812 164.636719 623.859375 164.367188 624.574219 C 164.101562 625.285156 163.796875 625.984375 163.460938 626.667969 C 163.121094 627.351562 162.753906 628.019531 162.351562 628.667969 C 161.949219 629.3125 161.515625 629.941406 161.050781 630.546875 C 160.585938 631.148438 160.09375 631.730469 159.570312 632.289062 C 159.050781 632.84375 158.503906 633.375 157.929688 633.875 C 157.355469 634.378906 156.761719 634.851562 156.140625 635.296875 C 155.519531 635.742188 154.878906 636.152344 154.21875 636.535156 L 124.703125 653.574219 C 124.042969 653.957031 123.367188 654.304688 122.671875 654.621094 C 121.976562 654.933594 121.269531 655.214844 120.546875 655.460938 C 119.824219 655.703125 119.089844 655.914062 118.347656 656.085938 C 117.605469 656.261719 116.855469 656.398438 116.101562 656.496094 C 115.34375 656.597656 114.585938 656.65625 113.824219 656.683594 C 113.0625 656.707031 112.300781 656.695312 111.539062 656.644531 C 110.777344 656.59375 110.023438 656.507812 109.269531 656.382812 C 108.515625 656.261719 107.773438 656.097656 107.035156 655.902344 C 106.300781 655.703125 105.574219 655.472656 104.859375 655.203125 C 104.148438 654.933594 103.449219 654.632812 102.765625 654.292969 C 102.082031 653.957031 101.414062 653.585938 100.769531 653.183594 C 100.121094 652.78125 99.492188 652.347656 98.890625 651.882812 C 98.285156 651.421875 97.703125 650.925781 97.148438 650.40625 C 96.589844 649.886719 96.0625 649.335938 95.558594 648.765625 C 95.054688 648.191406 94.582031 647.59375 94.136719 646.976562 C 93.695312 646.355469 93.28125 645.714844 92.898438 645.054688 Z M 92.898438 645.054688 " fill-opacity="1" fill-rule="nonzero"/><path fill="#ff3333" d="M 254.707031 768.933594 L 225.191406 751.894531 C 224.53125 751.511719 223.890625 751.097656 223.269531 750.65625 C 222.648438 750.210938 222.054688 749.738281 221.480469 749.234375 C 220.90625 748.730469 220.359375 748.203125 219.839844 747.644531 C 219.316406 747.089844 218.824219 746.507812 218.359375 745.902344 C 217.894531 745.296875 217.460938 744.671875 217.058594 744.023438 C 216.65625 743.378906 216.289062 742.710938 215.949219 742.027344 C 215.613281 741.34375 215.308594 740.644531 215.042969 739.929688 C 214.773438 739.21875 214.539062 738.492188 214.34375 737.757812 C 214.144531 737.019531 213.984375 736.273438 213.859375 735.523438 C 213.734375 734.769531 213.648438 734.015625 213.597656 733.253906 C 213.550781 732.492188 213.535156 731.730469 213.5625 730.96875 C 213.585938 730.207031 213.648438 729.449219 213.75 728.691406 C 213.847656 727.9375 213.984375 727.1875 214.15625 726.445312 C 214.332031 725.703125 214.539062 724.96875 214.785156 724.246094 C 215.03125 723.523438 215.308594 722.816406 215.625 722.121094 C 215.9375 721.425781 216.285156 720.75 216.667969 720.089844 L 233.710938 690.574219 C 234.089844 689.914062 234.503906 689.273438 234.949219 688.652344 C 235.390625 688.03125 235.867188 687.4375 236.367188 686.863281 C 236.871094 686.289062 237.402344 685.742188 237.957031 685.222656 C 238.511719 684.699219 239.09375 684.207031 239.699219 683.742188 C 240.304688 683.277344 240.929688 682.84375 241.578125 682.441406 C 242.226562 682.039062 242.890625 681.671875 243.574219 681.332031 C 244.257812 680.996094 244.957031 680.691406 245.671875 680.425781 C 246.386719 680.15625 247.109375 679.921875 247.847656 679.726562 C 248.582031 679.527344 249.328125 679.367188 250.078125 679.242188 C 250.832031 679.117188 251.589844 679.03125 252.347656 678.980469 C 253.109375 678.933594 253.871094 678.917969 254.632812 678.945312 C 255.394531 678.96875 256.15625 679.03125 256.910156 679.132812 C 257.667969 679.230469 258.417969 679.367188 259.160156 679.539062 C 259.902344 679.714844 260.632812 679.921875 261.355469 680.167969 C 262.078125 680.414062 262.785156 680.691406 263.480469 681.007812 C 264.175781 681.320312 264.851562 681.667969 265.511719 682.050781 L 295.03125 699.09375 C 295.691406 699.472656 296.332031 699.886719 296.949219 700.332031 C 297.570312 700.773438 298.167969 701.25 298.738281 701.75 C 299.3125 702.253906 299.859375 702.785156 300.382812 703.339844 C 300.902344 703.894531 301.394531 704.476562 301.859375 705.082031 C 302.324219 705.6875 302.757812 706.3125 303.160156 706.960938 C 303.5625 707.609375 303.933594 708.273438 304.269531 708.957031 C 304.605469 709.640625 304.910156 710.339844 305.179688 711.054688 C 305.449219 711.769531 305.679688 712.492188 305.878906 713.230469 C 306.074219 713.964844 306.234375 714.710938 306.359375 715.460938 C 306.484375 716.214844 306.570312 716.972656 306.621094 717.734375 C 306.671875 718.492188 306.683594 719.253906 306.660156 720.015625 C 306.632812 720.777344 306.570312 721.539062 306.472656 722.292969 C 306.371094 723.050781 306.234375 723.800781 306.0625 724.542969 C 305.890625 725.285156 305.679688 726.015625 305.4375 726.738281 C 305.191406 727.460938 304.910156 728.167969 304.597656 728.863281 C 304.28125 729.558594 303.933594 730.234375 303.550781 730.894531 L 286.511719 760.414062 C 286.128906 761.074219 285.714844 761.714844 285.273438 762.332031 C 284.828125 762.953125 284.355469 763.550781 283.851562 764.121094 C 283.347656 764.695312 282.820312 765.242188 282.261719 765.765625 C 281.707031 766.285156 281.125 766.777344 280.519531 767.242188 C 279.914062 767.707031 279.289062 768.140625 278.640625 768.542969 C 277.996094 768.945312 277.328125 769.316406 276.644531 769.652344 C 275.960938 769.988281 275.261719 770.292969 274.546875 770.5625 C 273.835938 770.832031 273.109375 771.0625 272.375 771.261719 C 271.636719 771.457031 270.890625 771.617188 270.140625 771.742188 C 269.386719 771.867188 268.632812 771.953125 267.871094 772.003906 C 267.109375 772.054688 266.347656 772.066406 265.585938 772.042969 C 264.824219 772.015625 264.066406 771.953125 263.308594 771.855469 C 262.554688 771.753906 261.804688 771.617188 261.0625 771.445312 C 260.320312 771.273438 259.585938 771.0625 258.863281 770.820312 C 258.140625 770.574219 257.433594 770.292969 256.738281 769.980469 C 256.042969 769.664062 255.367188 769.316406 254.707031 768.933594 Z M 254.707031 768.933594 " fill-opacity="1" fill-rule="nonzero"/><g clip-path="url(#ad592dba4f)"><path fill="#ff3333" d="M 456.816406 795.3125 L 422.730469 795.3125 C 421.96875 795.3125 421.207031 795.277344 420.449219 795.199219 C 419.691406 795.125 418.9375 795.015625 418.191406 794.867188 C 417.441406 794.71875 416.703125 794.53125 415.972656 794.308594 C 415.242188 794.089844 414.527344 793.832031 413.820312 793.539062 C 413.117188 793.25 412.429688 792.921875 411.757812 792.5625 C 411.085938 792.203125 410.429688 791.8125 409.796875 791.390625 C 409.164062 790.964844 408.550781 790.511719 407.960938 790.027344 C 407.371094 789.542969 406.808594 789.03125 406.269531 788.492188 C 405.730469 787.953125 405.21875 787.390625 404.734375 786.800781 C 404.25 786.210938 403.796875 785.601562 403.375 784.964844 C 402.949219 784.332031 402.558594 783.679688 402.199219 783.007812 C 401.839844 782.332031 401.515625 781.644531 401.222656 780.941406 C 400.929688 780.234375 400.671875 779.519531 400.453125 778.789062 C 400.230469 778.058594 400.046875 777.320312 399.898438 776.574219 C 399.75 775.824219 399.636719 775.070312 399.5625 774.3125 C 399.488281 773.554688 399.449219 772.792969 399.449219 772.03125 L 399.449219 737.949219 C 399.449219 737.183594 399.488281 736.425781 399.5625 735.664062 C 399.636719 734.90625 399.75 734.152344 399.898438 733.40625 C 400.046875 732.65625 400.230469 731.917969 400.453125 731.191406 C 400.671875 730.460938 400.929688 729.742188 401.222656 729.039062 C 401.515625 728.332031 401.839844 727.644531 402.199219 726.972656 C 402.558594 726.300781 402.949219 725.648438 403.375 725.011719 C 403.796875 724.378906 404.25 723.765625 404.734375 723.179688 C 405.21875 722.589844 405.730469 722.023438 406.269531 721.484375 C 406.808594 720.945312 407.371094 720.433594 407.960938 719.949219 C 408.550781 719.46875 409.164062 719.011719 409.796875 718.589844 C 410.429688 718.167969 411.085938 717.773438 411.757812 717.414062 C 412.429688 717.054688 413.117188 716.730469 413.820312 716.4375 C 414.527344 716.144531 415.242188 715.890625 415.972656 715.667969 C 416.703125 715.445312 417.441406 715.261719 418.191406 715.113281 C 418.9375 714.964844 419.691406 714.851562 420.449219 714.777344 C 421.207031 714.703125 421.96875 714.664062 422.730469 714.664062 L 456.816406 714.664062 C 457.578125 714.664062 458.339844 714.703125 459.097656 714.777344 C 459.855469 714.851562 460.609375 714.964844 461.355469 715.113281 C 462.105469 715.261719 462.84375 715.445312 463.574219 715.667969 C 464.304688 715.890625 465.019531 716.148438 465.722656 716.4375 C 466.429688 716.730469 467.117188 717.054688 467.789062 717.414062 C 468.460938 717.773438 469.117188 718.167969 469.75 718.589844 C 470.382812 719.011719 470.996094 719.46875 471.585938 719.949219 C 472.175781 720.433594 472.738281 720.945312 473.277344 721.484375 C 473.816406 722.023438 474.328125 722.589844 474.8125 723.179688 C 475.296875 723.765625 475.75 724.378906 476.171875 725.011719 C 476.597656 725.648438 476.988281 726.300781 477.347656 726.972656 C 477.707031 727.644531 478.03125 728.332031 478.324219 729.039062 C 478.617188 729.742188 478.871094 730.460938 479.09375 731.191406 C 479.316406 731.917969 479.5 732.65625 479.648438 733.40625 C 479.796875 734.152344 479.910156 734.90625 479.984375 735.664062 C 480.058594 736.425781 480.097656 737.183594 480.097656 737.949219 L 480.097656 772.03125 C 480.097656 772.792969 480.058594 773.554688 479.984375 774.3125 C 479.910156 775.070312 479.796875 775.824219 479.648438 776.574219 C 479.5 777.320312 479.316406 778.058594 479.09375 778.789062 C 478.871094 779.519531 478.617188 780.234375 478.324219 780.941406 C 478.03125 781.644531 477.707031 782.332031 477.347656 783.007812 C 476.988281 783.679688 476.597656 784.332031 476.171875 784.964844 C 475.75 785.601562 475.296875 786.210938 474.8125 786.800781 C 474.328125 787.390625 473.816406 787.953125 473.277344 788.492188 C 472.738281 789.03125 472.175781 789.542969 471.585938 790.027344 C 470.996094 790.511719 470.382812 790.964844 469.75 791.390625 C 469.117188 791.8125 468.460938 792.203125 467.789062 792.5625 C 467.117188 792.921875 466.429688 793.25 465.722656 793.539062 C 465.019531 793.832031 464.304688 794.089844 463.574219 794.308594 C 462.84375 794.53125 462.105469 794.71875 461.355469 794.867188 C 460.609375 795.015625 459.855469 795.125 459.097656 795.199219 C 458.339844 795.277344 457.578125 795.3125 456.816406 795.3125 Z M 456.816406 795.3125 " fill-opacity="1" fill-rule="nonzero"/></g><path fill="#ff3333" d="M 645.039062 717.109375 L 615.523438 734.152344 C 614.863281 734.53125 614.183594 734.878906 613.488281 735.195312 C 612.796875 735.511719 612.085938 735.789062 611.367188 736.035156 C 610.644531 736.28125 609.910156 736.488281 609.167969 736.664062 C 608.425781 736.835938 607.675781 736.972656 606.921875 737.070312 C 606.164062 737.171875 605.40625 737.234375 604.644531 737.257812 C 603.882812 737.285156 603.121094 737.269531 602.359375 737.222656 C 601.597656 737.171875 600.839844 737.085938 600.089844 736.960938 C 599.335938 736.835938 598.59375 736.675781 597.855469 736.476562 C 597.121094 736.28125 596.394531 736.046875 595.679688 735.777344 C 594.96875 735.511719 594.269531 735.207031 593.585938 734.871094 C 592.902344 734.53125 592.234375 734.164062 591.585938 733.761719 C 590.941406 733.355469 590.3125 732.925781 589.707031 732.460938 C 589.105469 731.996094 588.523438 731.503906 587.964844 730.980469 C 587.410156 730.460938 586.878906 729.914062 586.378906 729.339844 C 585.875 728.765625 585.402344 728.171875 584.957031 727.550781 C 584.511719 726.929688 584.101562 726.289062 583.71875 725.628906 L 566.675781 696.113281 C 566.296875 695.453125 565.949219 694.773438 565.632812 694.082031 C 565.320312 693.386719 565.039062 692.679688 564.792969 691.957031 C 564.546875 691.234375 564.339844 690.5 564.167969 689.757812 C 563.992188 689.015625 563.855469 688.265625 563.757812 687.511719 C 563.65625 686.753906 563.59375 685.996094 563.570312 685.234375 C 563.546875 684.472656 563.558594 683.710938 563.609375 682.949219 C 563.65625 682.1875 563.746094 681.433594 563.867188 680.679688 C 563.992188 679.925781 564.152344 679.183594 564.351562 678.445312 C 564.550781 677.710938 564.78125 676.984375 565.050781 676.269531 C 565.320312 675.558594 565.621094 674.859375 565.960938 674.175781 C 566.296875 673.492188 566.667969 672.824219 567.070312 672.175781 C 567.472656 671.53125 567.90625 670.902344 568.371094 670.300781 C 568.832031 669.695312 569.328125 669.113281 569.847656 668.558594 C 570.367188 668 570.914062 667.46875 571.488281 666.96875 C 572.0625 666.464844 572.660156 665.992188 573.277344 665.546875 C 573.898438 665.101562 574.539062 664.691406 575.199219 664.308594 L 604.714844 647.269531 C 605.375 646.886719 606.054688 646.539062 606.75 646.222656 C 607.441406 645.910156 608.152344 645.628906 608.875 645.382812 C 609.59375 645.140625 610.328125 644.929688 611.070312 644.757812 C 611.8125 644.582031 612.5625 644.445312 613.316406 644.347656 C 614.074219 644.25 614.832031 644.1875 615.59375 644.160156 C 616.355469 644.136719 617.117188 644.148438 617.878906 644.199219 C 618.640625 644.25 619.398438 644.335938 620.148438 644.460938 C 620.902344 644.582031 621.644531 644.746094 622.382812 644.941406 C 623.121094 645.140625 623.84375 645.371094 624.558594 645.640625 C 625.273438 645.910156 625.96875 646.210938 626.65625 646.550781 C 627.339844 646.886719 628.003906 647.257812 628.652344 647.660156 C 629.300781 648.0625 629.925781 648.496094 630.53125 648.960938 C 631.136719 649.425781 631.714844 649.917969 632.273438 650.4375 C 632.828125 650.960938 633.359375 651.507812 633.859375 652.078125 C 634.363281 652.652344 634.835938 653.25 635.28125 653.871094 C 635.726562 654.488281 636.136719 655.128906 636.519531 655.789062 L 653.5625 685.304688 C 653.941406 685.964844 654.289062 686.644531 654.605469 687.339844 C 654.917969 688.035156 655.199219 688.742188 655.445312 689.464844 C 655.691406 690.1875 655.898438 690.917969 656.074219 691.660156 C 656.246094 692.402344 656.382812 693.152344 656.480469 693.910156 C 656.582031 694.664062 656.644531 695.421875 656.667969 696.1875 C 656.691406 696.949219 656.679688 697.710938 656.628906 698.46875 C 656.582031 699.230469 656.492188 699.988281 656.371094 700.738281 C 656.246094 701.492188 656.085938 702.238281 655.886719 702.972656 C 655.691406 703.710938 655.457031 704.433594 655.1875 705.148438 C 654.917969 705.863281 654.617188 706.5625 654.28125 707.246094 C 653.941406 707.929688 653.574219 708.59375 653.167969 709.242188 C 652.765625 709.890625 652.332031 710.515625 651.871094 711.121094 C 651.40625 711.726562 650.914062 712.304688 650.390625 712.863281 C 649.871094 713.417969 649.324219 713.949219 648.75 714.453125 C 648.175781 714.953125 647.578125 715.425781 646.960938 715.871094 C 646.339844 716.316406 645.699219 716.730469 645.039062 717.109375 Z M 645.039062 717.109375 " fill-opacity="1" fill-rule="nonzero"/><path fill="#ff3333" d="M 768.921875 555.320312 L 751.882812 584.835938 C 751.5 585.496094 751.085938 586.136719 750.644531 586.757812 C 750.199219 587.378906 749.726562 587.972656 749.222656 588.546875 C 748.71875 589.121094 748.191406 589.667969 747.632812 590.1875 C 747.078125 590.710938 746.496094 591.203125 745.890625 591.667969 C 745.285156 592.132812 744.660156 592.5625 744.011719 592.96875 C 743.367188 593.371094 742.699219 593.738281 742.015625 594.078125 C 741.332031 594.414062 740.632812 594.71875 739.921875 594.984375 C 739.207031 595.253906 738.480469 595.488281 737.746094 595.683594 C 737.007812 595.882812 736.265625 596.042969 735.511719 596.167969 C 734.757812 596.292969 734.003906 596.378906 733.242188 596.429688 C 732.480469 596.476562 731.71875 596.492188 730.957031 596.464844 C 730.195312 596.441406 729.4375 596.378906 728.679688 596.277344 C 727.925781 596.179688 727.175781 596.042969 726.433594 595.871094 C 725.691406 595.695312 724.957031 595.488281 724.234375 595.242188 C 723.511719 594.996094 722.804688 594.71875 722.109375 594.402344 C 721.414062 594.089844 720.738281 593.738281 720.078125 593.359375 L 690.5625 576.316406 C 689.902344 575.9375 689.261719 575.523438 688.640625 575.078125 C 688.019531 574.636719 687.425781 574.160156 686.851562 573.660156 C 686.277344 573.15625 685.730469 572.625 685.210938 572.070312 C 684.6875 571.511719 684.195312 570.933594 683.730469 570.328125 C 683.265625 569.722656 682.832031 569.097656 682.429688 568.449219 C 682.027344 567.800781 681.660156 567.136719 681.320312 566.453125 C 680.984375 565.769531 680.679688 565.070312 680.414062 564.355469 C 680.144531 563.640625 679.910156 562.917969 679.714844 562.179688 C 679.515625 561.445312 679.355469 560.699219 679.230469 559.945312 C 679.105469 559.195312 679.019531 558.4375 678.96875 557.675781 C 678.921875 556.917969 678.90625 556.15625 678.933594 555.394531 C 678.957031 554.628906 679.019531 553.871094 679.121094 553.117188 C 679.21875 552.359375 679.355469 551.609375 679.527344 550.867188 C 679.703125 550.125 679.910156 549.394531 680.15625 548.671875 C 680.402344 547.949219 680.679688 547.242188 680.996094 546.546875 C 681.308594 545.851562 681.65625 545.175781 682.039062 544.511719 L 699.082031 514.996094 C 699.460938 514.335938 699.875 513.695312 700.320312 513.078125 C 700.761719 512.457031 701.238281 511.859375 701.738281 511.285156 C 702.242188 510.714844 702.773438 510.167969 703.328125 509.644531 C 703.886719 509.125 704.464844 508.632812 705.070312 508.167969 C 705.675781 507.703125 706.300781 507.269531 706.949219 506.867188 C 707.597656 506.464844 708.261719 506.09375 708.945312 505.757812 C 709.628906 505.417969 710.328125 505.117188 711.042969 504.847656 C 711.757812 504.578125 712.480469 504.347656 713.21875 504.148438 C 713.953125 503.953125 714.699219 503.789062 715.449219 503.667969 C 716.203125 503.542969 716.960938 503.457031 717.722656 503.40625 C 718.480469 503.355469 719.242188 503.34375 720.003906 503.367188 C 720.765625 503.394531 721.527344 503.457031 722.28125 503.554688 C 723.039062 503.65625 723.789062 503.789062 724.53125 503.964844 C 725.273438 504.136719 726.003906 504.347656 726.726562 504.589844 C 727.449219 504.835938 728.15625 505.117188 728.851562 505.429688 C 729.546875 505.746094 730.222656 506.09375 730.882812 506.476562 L 760.402344 523.515625 C 761.0625 523.898438 761.703125 524.308594 762.320312 524.753906 C 762.941406 525.199219 763.539062 525.671875 764.113281 526.175781 C 764.683594 526.679688 765.230469 527.207031 765.753906 527.765625 C 766.273438 528.320312 766.765625 528.902344 767.230469 529.507812 C 767.695312 530.109375 768.128906 530.738281 768.53125 531.382812 C 768.933594 532.03125 769.304688 532.699219 769.640625 533.382812 C 769.980469 534.066406 770.28125 534.765625 770.550781 535.476562 C 770.820312 536.191406 771.050781 536.917969 771.25 537.652344 C 771.445312 538.390625 771.605469 539.132812 771.730469 539.886719 C 771.855469 540.640625 771.941406 541.394531 771.992188 542.15625 C 772.042969 542.917969 772.054688 543.679688 772.03125 544.441406 C 772.003906 545.203125 771.941406 545.960938 771.84375 546.71875 C 771.742188 547.472656 771.605469 548.222656 771.433594 548.964844 C 771.261719 549.707031 771.050781 550.441406 770.808594 551.164062 C 770.5625 551.886719 770.28125 552.59375 769.96875 553.289062 C 769.652344 553.980469 769.304688 554.660156 768.921875 555.320312 Z M 768.921875 555.320312 " fill-opacity="1" fill-rule="nonzero"/><g clip-path="url(#c43639e8e9)"><path fill="#ff3333" d="M 795.3125 353.179688 L 795.3125 387.261719 C 795.3125 388.023438 795.277344 388.785156 795.199219 389.542969 C 795.125 390.300781 795.015625 391.054688 794.867188 391.804688 C 794.71875 392.550781 794.53125 393.289062 794.308594 394.019531 C 794.089844 394.75 793.832031 395.464844 793.539062 396.171875 C 793.25 396.875 792.921875 397.5625 792.5625 398.238281 C 792.203125 398.910156 791.8125 399.5625 791.390625 400.195312 C 790.964844 400.832031 790.511719 401.441406 790.027344 402.03125 C 789.542969 402.621094 789.03125 403.183594 788.492188 403.722656 C 787.953125 404.261719 787.390625 404.773438 786.800781 405.257812 C 786.210938 405.742188 785.601562 406.195312 784.964844 406.621094 C 784.332031 407.042969 783.679688 407.433594 783.007812 407.792969 C 782.332031 408.152344 781.644531 408.480469 780.941406 408.769531 C 780.234375 409.0625 779.519531 409.320312 778.789062 409.539062 C 778.058594 409.761719 777.320312 409.945312 776.574219 410.097656 C 775.824219 410.246094 775.070312 410.355469 774.3125 410.429688 C 773.554688 410.507812 772.792969 410.542969 772.03125 410.542969 L 737.949219 410.542969 C 737.183594 410.542969 736.425781 410.507812 735.664062 410.429688 C 734.90625 410.355469 734.152344 410.246094 733.40625 410.097656 C 732.65625 409.945312 731.917969 409.761719 731.191406 409.539062 C 730.460938 409.320312 729.742188 409.0625 729.039062 408.769531 C 728.332031 408.480469 727.644531 408.152344 726.972656 407.792969 C 726.300781 407.433594 725.648438 407.042969 725.011719 406.621094 C 724.378906 406.195312 723.765625 405.742188 723.179688 405.257812 C 722.589844 404.773438 722.023438 404.261719 721.484375 403.722656 C 720.945312 403.183594 720.433594 402.621094 719.949219 402.03125 C 719.46875 401.441406 719.011719 400.832031 718.589844 400.195312 C 718.167969 399.5625 717.773438 398.910156 717.414062 398.238281 C 717.054688 397.5625 716.730469 396.875 716.4375 396.171875 C 716.148438 395.464844 715.890625 394.75 715.667969 394.019531 C 715.445312 393.289062 715.261719 392.550781 715.113281 391.804688 C 714.964844 391.054688 714.851562 390.300781 714.777344 389.542969 C 714.703125 388.785156 714.667969 388.023438 714.667969 387.261719 L 714.667969 353.179688 C 714.667969 352.414062 714.703125 351.65625 714.777344 350.894531 C 714.851562 350.136719 714.964844 349.382812 715.113281 348.636719 C 715.261719 347.886719 715.445312 347.148438 715.667969 346.417969 C 715.890625 345.691406 716.148438 344.972656 716.4375 344.269531 C 716.730469 343.5625 717.054688 342.875 717.414062 342.203125 C 717.773438 341.53125 718.167969 340.878906 718.589844 340.242188 C 719.011719 339.609375 719.46875 338.996094 719.949219 338.410156 C 720.433594 337.820312 720.945312 337.253906 721.484375 336.714844 C 722.023438 336.175781 722.589844 335.664062 723.179688 335.179688 C 723.765625 334.699219 724.378906 334.242188 725.011719 333.820312 C 725.648438 333.394531 726.300781 333.003906 726.972656 332.644531 C 727.644531 332.285156 728.332031 331.960938 729.039062 331.667969 C 729.742188 331.375 730.460938 331.121094 731.191406 330.898438 C 731.917969 330.675781 732.65625 330.492188 733.40625 330.34375 C 734.152344 330.195312 734.90625 330.082031 735.664062 330.007812 C 736.425781 329.933594 737.183594 329.894531 737.949219 329.894531 L 772.03125 329.894531 C 772.792969 329.894531 773.554688 329.933594 774.3125 330.007812 C 775.070312 330.082031 775.824219 330.195312 776.574219 330.34375 C 777.320312 330.492188 778.058594 330.675781 778.789062 330.898438 C 779.519531 331.121094 780.234375 331.375 780.941406 331.667969 C 781.644531 331.960938 782.332031 332.285156 783.007812 332.644531 C 783.679688 333.003906 784.332031 333.394531 784.964844 333.820312 C 785.601562 334.242188 786.210938 334.699219 786.800781 335.179688 C 787.390625 335.664062 787.953125 336.175781 788.492188 336.714844 C 789.03125 337.253906 789.542969 337.820312 790.027344 338.410156 C 790.511719 338.996094 790.964844 339.609375 791.390625 340.242188 C 791.8125 340.878906 792.203125 341.53125 792.5625 342.203125 C 792.921875 342.875 793.25 343.5625 793.539062 344.269531 C 793.832031 344.972656 794.089844 345.691406 794.308594 346.417969 C 794.53125 347.148438 794.71875 347.886719 794.867188 348.636719 C 795.015625 349.382812 795.125 350.136719 795.199219 350.894531 C 795.277344 351.65625 795.3125 352.414062 795.3125 353.179688 Z M 795.3125 353.179688 " fill-opacity="1" fill-rule="nonzero"/></g></svg>